<?xml version="1.0" standalone="no"?>
<!DOCTYPE svg PUBLIC "-//W3C//DTD SVG 20010904//EN"
 "http://www.w3.org/TR/2001/REC-SVG-20010904/DTD/svg10.dtd">
<svg version="1.0" xmlns="http://www.w3.org/2000/svg"
 width="700.000000pt" height="700.000000pt" viewBox="0 0 700.000000 700.000000"
 preserveAspectRatio="xMidYMid meet">
<metadata>
Created by potrace 1.11, written by Peter Selinger 2001-2013
</metadata>
<g transform="translate(0.000000,700.000000) scale(0.100000,-0.100000)"
fill="#000000" stroke="none">
<path d="M782 6962 c-6 -20 -33 -116 -62 -212 -47 -162 -154 -570 -165 -632
-3 -16 -12 -56 -20 -90 -8 -35 -16 -74 -19 -88 -2 -14 -11 -56 -19 -95 -9 -38
-18 -83 -20 -100 -3 -16 -15 -79 -27 -140 -20 -109 -73 -438 -84 -525 -3 -25
-8 -59 -10 -75 -5 -37 -14 -109 -21 -172 -3 -27 -7 -61 -10 -78 -2 -16 -6 -64
-10 -105 -3 -41 -8 -91 -10 -110 -2 -19 -7 -71 -10 -115 -3 -44 -7 -103 -10
-131 -4 -47 -11 -179 -20 -394 -5 -109 -5 -677 0 -795 5 -121 15 -326 21 -402
10 -155 14 -201 19 -251 3 -28 8 -78 11 -110 3 -31 7 -70 9 -87 2 -16 7 -57
10 -90 3 -33 8 -73 10 -90 39 -294 64 -455 96 -630 12 -60 23 -121 25 -135 58
-321 167 -768 299 -1217 25 -82 30 -91 49 -87 11 2 30 6 41 8 11 2 40 9 65 16
25 7 56 14 70 17 116 20 570 148 835 233 398 129 891 317 1170 445 28 13 72
33 99 45 88 39 321 150 336 160 8 6 26 15 40 20 26 11 131 65 215 110 283 152
288 155 455 253 408 240 811 508 1145 761 88 67 169 129 180 138 11 9 74 60
140 114 129 104 213 174 285 239 25 22 81 72 125 110 207 183 301 272 505 476
206 206 330 337 330 350 0 11 -135 154 -335 354 -203 202 -365 355 -527 497
-26 23 -120 104 -152 131 -11 10 -32 28 -46 40 -58 52 -303 249 -415 334 -66
51 -124 96 -130 100 -34 28 -281 204 -390 279 -308 212 -744 478 -1040 634
-55 29 -104 56 -110 60 -13 10 -373 190 -455 228 -36 17 -105 49 -155 72 -417
195 -1005 414 -1540 575 -118 36 -669 178 -731 189 -30 5 -32 3 -42 -32z
m1178 -1894 c43 -24 501 -289 715 -413 163 -95 337 -195 380 -219 39 -23 544
-314 840 -486 83 -47 231 -133 330 -191 99 -57 189 -109 200 -116 11 -7 29
-17 40 -22 11 -6 47 -26 80 -46 33 -19 75 -43 93 -52 17 -9 32 -19 32 -22 0
-4 -48 -33 -106 -66 -58 -33 -113 -64 -122 -70 -23 -13 -168 -98 -212 -123
-19 -11 -64 -37 -100 -57 -36 -21 -83 -48 -106 -60 -22 -13 -58 -34 -80 -47
-21 -14 -64 -38 -94 -55 -30 -17 -127 -72 -215 -123 -88 -51 -266 -154 -395
-228 -129 -74 -345 -199 -480 -277 -135 -78 -272 -157 -305 -175 -33 -18 -67
-39 -76 -46 -8 -8 -18 -14 -21 -14 -7 0 -439 -249 -455 -262 -7 -6 -13 -7 -14
-2 -3 28 -4 3191 -1 3202 3 8 9 9 16 4 6 -5 31 -21 56 -34z"/>
</g>
</svg>
