<?xml version="1.0" encoding="UTF-8" standalone="no"?>
<!-- Created with Inkscape (http://www.inkscape.org/) -->

<svg
   width="32mm"
   height="32mm"
   viewBox="0 0 32 32"
   version="1.1"
   id="svg722"
   xmlns="http://www.w3.org/2000/svg"
   xmlns:svg="http://www.w3.org/2000/svg">
  <defs
     id="defs719" />
  <g
     id="layer1">
    <g
       id="g705"
       transform="matrix(0.82841939,0,0,0.75693772,-2.7257979,-0.33954411)">
      <path
         style="fill:#00ffff;stroke-width:0.213074"
         d="M 21.082169,42.474499 C 20.340262,42.199256 7.9920228,35.0621 5.8540997,33.67282 5.1423902,33.210323 4.5706794,32.624941 4.2612088,32.041824 3.7839544,31.142625 3.777763,31.028175 3.7148256,22.002493 3.6454929,12.008079 3.6923735,11.505782 4.8063155,10.394145 5.4301748,9.7715729 19.065312,1.8264361 21.122025,0.88705297 22.218646,0.38618281 23.271538,0.34605809 24.438993,0.76063722 25.388777,1.0979155 39.681514,9.3636582 40.809858,10.228191 c 1.488027,1.140129 1.506804,1.277278 1.512019,11.045988 0.0032,6.095879 -0.07085,8.99361 -0.245289,9.579212 -0.13742,0.461743 -0.593436,1.194395 -1.013277,1.628049 -0.921717,0.952039 -15.52242,9.575124 -16.939533,10.004382 -1.188742,0.360119 -2.049134,0.356888 -3.04167,-0.01129 z m 11.179576,-8.924134 c 2.700885,-1.516443 5.138532,-3.001123 5.417002,-3.299283 l 0.506262,-0.542127 0.06412,-6.855118 c 0.03802,-4.041663 -0.01697,-6.936822 -0.133485,-7.054186 -0.255335,-0.256996 -1.148685,0.216745 -7.044051,3.735433 -3.007572,1.795073 -4.881557,3.045682 -5.059317,3.376349 -0.224367,0.417385 -0.258788,1.813205 -0.167354,6.801756 0.120809,6.593406 0.187183,7.015586 1.059138,6.737049 0.245723,-0.07851 2.656555,-1.383445 5.357434,-2.899887 z M 9.8951376,31.748956 c 2.1918194,-1.1133 11.6392584,-6.592611 11.9359804,-6.922612 0.506855,-0.56374 0.644889,-1.945502 0.266817,-2.671715 -0.227302,-0.436675 -2.112948,-1.688791 -6.970156,-4.628379 -3.662201,-2.21637 -6.8196746,-4.029765 -7.0166252,-4.029765 -0.1969101,0 -0.4259482,0.168344 -0.508945,0.374081 -0.2179773,0.540327 -0.1194691,16.666315 0.1054402,17.261679 0.1947231,0.515408 0.7472685,0.94403 1.2317657,0.955437 0.1518195,0.0035 0.5818806,-0.148829 0.9557401,-0.338726 z"
         id="path525" />
      <path
         style="fill:#000000;stroke:#00ffff;stroke-width:0"
         d="m 37.034097,29.7846 c 0.131421,-0.05271 0.32765,-0.232105 0.436074,-0.39864 0.184227,-0.282962 0.197139,-0.704054 0.197139,-6.428708 0,-5.277051 -0.02226,-6.139789 -0.160594,-6.226057 -0.199042,-0.124118 -0.810831,0.207948 -4.747767,2.576995 -3.382436,2.035376 -5.117692,3.170659 -5.344547,3.496646 -0.180674,0.259625 -0.209981,1.125106 -0.05223,1.5427 0.125214,0.331469 0.498012,0.578716 3.600499,2.387898 2.733738,1.594151 5.303504,3.007741 5.61446,3.088433 0.119922,0.03112 0.325559,0.01339 0.456975,-0.03927 z"
         id="path652" />
      <path
         style="fill:#000000;stroke:#00ffff;stroke-width:0"
         d="m 10.922822,32.821771 c -0.01866,-0.141195 0.04078,-0.40118 0.132028,-0.57784 0.155056,-0.300149 0.513582,-0.517544 5.47383,-3.318736 4.572414,-2.582171 5.330866,-2.984749 5.473284,-2.905572 0.204907,0.114022 0.216568,0.813469 0.09029,5.428432 -0.108492,3.964963 -0.243091,6.043641 -0.41454,6.402287 -0.136506,0.285657 -0.872124,0.734851 -1.311148,0.800721 -0.348493,0.05226 -0.745132,-0.153967 -3.830842,-1.991987 -2.718964,-1.619558 -5.201238,-3.183523 -5.423315,-3.41699 -0.08567,-0.09009 -0.170903,-0.279216 -0.18958,-0.420327 z"
         id="path658" />
    </g>
  </g>
</svg>
