<?xml version="1.0" encoding="UTF-8" standalone="no"?>
<svg
   width="114"
   height="32"
   viewBox="0 0 114 32"
   fill="none"
   version="1.1"
   id="svg236"
   xml:space="preserve"
   xmlns="http://www.w3.org/2000/svg"
   xmlns:svg="http://www.w3.org/2000/svg"><path
     style="fill:#ffffff;stroke-width:0.1533"
     d="M 14.906895,30.855773 C 14.371385,30.658385 5.4584027,25.540045 3.9152458,24.543736 3.4015325,24.212061 2.9888706,23.79226 2.7654941,23.374084 2.421011,22.729232 2.416542,22.647155 2.3711137,16.174477 2.3210692,9.0070818 2.3549077,8.646865 3.1589532,7.8496656 3.609256,7.4031939 13.451124,1.7054178 14.935663,1.0317485 c 0.791543,-0.35919407 1.551523,-0.38796911 2.394194,-0.0906578 0.685556,0.2418758 11.00208,6.1695712 11.816521,6.7895624 1.074061,0.8176324 1.087614,0.9159875 1.091378,7.9215209 0.0023,4.371599 -0.05114,6.449678 -0.17705,6.869637 -0.09919,0.331134 -0.428343,0.856548 -0.731385,1.167539 -0.665297,0.682745 -11.204112,6.866705 -12.226987,7.174543 -0.858036,0.258256 -1.479069,0.255939 -2.195483,-0.0081 z m 8.069439,-6.399854 c 1.949504,-1.087502 3.709002,-2.152226 3.910002,-2.366048 l 0.365421,-0.388781 0.04628,-4.91608 c 0.02744,-2.898439 -0.01225,-4.974673 -0.09635,-5.05884 -0.184301,-0.184302 -0.829123,0.155437 -5.084409,2.678829 -2.170871,1.287319 -3.523517,2.184181 -3.651825,2.421315 -0.161948,0.299324 -0.186793,1.300322 -0.120796,4.877812 0.0872,4.728396 0.135109,5.031158 0.764488,4.831408 0.177363,-0.0563 1.917506,-0.992124 3.867006,-2.079625 z M 6.8320746,23.164056 c 1.5820596,-0.798392 8.4012384,-4.727825 8.6154134,-4.964482 0.365849,-0.404281 0.465482,-1.395198 0.192589,-1.915994 -0.164067,-0.313157 -1.52513,-1.2111 -5.031072,-3.319196 -2.6433836,-1.589448 -4.922454,-2.889906 -5.0646133,-2.889906 -0.1421301,0 -0.3074502,0.120726 -0.3673575,0.268268 -0.1573364,0.38749 -0.086233,11.952083 0.076107,12.379042 0.1405515,0.36962 0.5393798,0.677002 0.8890908,0.685182 0.1095836,0.0025 0.4200025,-0.106731 0.689855,-0.242914 z"
     id="path525" /><path
     style="fill:#000000;stroke:#00ffff;stroke-width:0"
     d="m 26.421027,21.755338 c 0.09486,-0.0378 0.236498,-0.166452 0.314759,-0.285881 0.132975,-0.202923 0.142295,-0.504905 0.142295,-4.610284 0,-3.784385 -0.01607,-4.403089 -0.115917,-4.464955 -0.143669,-0.08901 -0.585259,0.149128 -3.426947,1.848066 -2.441449,1.45965 -3.69396,2.273807 -3.857704,2.507585 -0.130411,0.186188 -0.151565,0.806859 -0.0377,1.106332 0.09038,0.23771 0.359466,0.415021 2.598847,1.712458 1.973217,1.143229 3.828079,2.156971 4.052528,2.214839 0.08656,0.02232 0.234989,0.0096 0.329845,-0.02816 z"
     id="path652" /><path
     style="fill:#000000;stroke:#00ffff;stroke-width:0"
     d="m 7.5738593,23.933415 c -0.013471,-0.101257 0.029438,-0.287702 0.095298,-0.414392 0.1119199,-0.215249 0.3707043,-0.371152 3.9510207,-2.379999 3.300377,-1.851778 3.847829,-2.140483 3.950627,-2.083702 0.147902,0.08177 0.156319,0.583371 0.06517,3.892946 -0.07831,2.843434 -0.175464,4.334137 -0.299216,4.591337 -0.09853,0.204856 -0.629501,0.526991 -0.946389,0.574229 C 14.138827,28.151314 13.852532,28.003418 11.625261,26.6853 9.6627076,25.52385 7.8709973,24.402268 7.7107019,24.23484 7.6488653,24.170233 7.5873441,24.034603 7.5738627,23.933406 Z"
     id="path658" /><g
     aria-label="Vidolid"
     id="text662"
     style="font-size:21.9284px;font-family:'Neue Haas Grotesk Display Pro';-inkscape-font-specification:'Neue Haas Grotesk Display Pro';text-align:center;text-anchor:middle;fill:#000000;stroke:#00ffff;stroke-width:0"><path
       d="M 48.843127,8.8356643 43.03981,24.778725 H 40.213102 L 34.409786,8.8356643 h 2.269932 L 41.679992,22.862131 46.680267,8.8356643 Z"
       style="font-family:'MT Extra';-inkscape-font-specification:'MT Extra';fill:#000000"
       id="path766" /><g
       id="path768"
       style="fill:#000000"><path
         style="color:#000000;-inkscape-font-specification:'MT Extra';fill:#000000;stroke:none;-inkscape-stroke:none"
         d="M 53.265211,10.816501 H 50.995279 V 8.728592 h 2.269932 z M 53.136725,24.778725 H 51.123766 V 12.818753 h 2.012959 z"
         id="path832" /><path
         style="color:#000000;-inkscape-font-specification:'MT Extra';fill:#000000;stroke:none;-inkscape-stroke:none"
         d="M 53.265211,10.816501 H 50.995279 V 8.728592 h 2.269932 z M 53.136725,24.778725 H 51.123766 V 12.818753 h 2.012959 z"
         id="path834" /></g><path
       d="m 66.82056,24.778725 h -2.012959 v -1.252746 q -0.867285,0.749506 -1.809521,1.167088 -0.942236,0.417582 -2.04508,0.417582 -2.141446,0 -3.404898,-1.648913 -1.252746,-1.648913 -1.252746,-4.571986 0,-1.520426 0.428289,-2.708928 0.438996,-1.188502 1.177795,-2.023666 0.728091,-0.813749 1.691742,-1.242038 0.974358,-0.428289 2.012958,-0.428289 0.942236,0 1.670328,0.203437 0.728091,0.19273 1.531133,0.610312 V 8.1182801 h 2.012959 z m -2.012959,-2.944488 v -6.863332 q -0.813749,-0.364046 -1.456183,-0.50324 -0.642433,-0.139193 -1.402646,-0.139193 -1.691742,0 -2.633978,1.177794 -0.942236,1.177795 -0.942236,3.340655 0,2.130738 0.728091,3.24429 0.728092,1.102844 2.334176,1.102844 0.856578,0 1.734571,-0.374753 0.877992,-0.38546 1.638205,-0.985065 z"
       style="font-family:'MT Extra';-inkscape-font-specification:'MT Extra';fill:#000000"
       id="path770" /><path
       d="m 73.187076,22.366601 q -1.359561,0 -2.32441,-0.96485 -0.96485,-0.96485 -0.96485,-2.302482 0,-1.381489 0.96485,-2.32441 0.986778,-0.96485 2.32441,-0.96485 0.920993,0 1.64463,0.460496 0.745566,0.438568 1.184134,1.184134 0.460496,0.723637 0.460496,1.64463 0,0.920993 -0.460496,1.666558 -0.438568,0.745566 -1.184134,1.184134 -0.745566,0.41664 -1.64463,0.41664 z m -0.02193,-5.679456 q -0.986778,0 -1.688487,0.701709 -0.701709,0.701709 -0.701709,1.710415 0,0.986778 0.701709,1.688487 0.701709,0.701709 1.710415,0.701709 1.008706,0 1.710415,-0.701709 0.701709,-0.701709 0.701709,-1.688487 0,-1.030635 -0.723637,-1.710415 -0.701709,-0.701709 -1.710415,-0.701709 z"
       style="font-family:'MT Extra';-inkscape-font-specification:'MT Extra';fill:#ffffff"
       id="path772" /><path
       d="m 81.212865,20.546543 q -0.570138,4.100611 1.162205,4.100611 0.723637,0 1.184134,-0.328926 0.482425,-0.350854 1.293775,-1.162205 0.06579,-0.06579 0.175428,-0.04386 0.109642,0 0.153498,0.02193 0.04386,0.04386 0.06579,0.13157 0.04386,0.06579 -0.02193,0.153499 -0.723637,0.899064 -1.315704,1.271847 -0.592067,0.372783 -1.534988,0.372783 -1.074491,0 -1.578845,-1.249919 -0.504353,-1.249919 -0.657852,-2.258625 -0.723637,0.657852 -0.833279,0.767494 -0.08771,0.08771 -0.964849,0.877136 v 0.02193 q 0,0.06579 -0.08771,0.04386 -0.06579,-0.04386 -0.13157,-0.06578 -0.02193,-0.06579 -0.04386,-0.153499 0,-0.109642 0.04386,-0.153499 0.306997,-0.263141 1.118348,-1.008706 0.833279,-0.745566 0.877136,-0.767494 0.02193,-1.534988 0.41664,-3.749757 0.26314,-1.425346 1.052563,-3.179618 0.811351,-1.754272 1.7762,-2.982262 0.986778,-1.2499188 1.64463,-1.2499188 1.162205,0 1.249919,1.1402768 0.08771,1.140277 -0.197356,2.039341 -0.745565,2.280554 -1.863914,3.925184 -1.09642,1.64463 -2.982262,3.486615 z m 4.363752,-7.477584 q 0.26314,-0.67978 0.197355,-1.666558 -0.04386,-1.008707 -0.723637,-1.008707 -0.460496,0 -1.09642,1.206062 -0.635924,1.206062 -1.271847,3.004191 -0.613995,1.7762 -0.920993,3.048048 -0.285069,1.140276 -0.482425,2.302482 2.872621,-3.069976 4.297967,-6.885518 z"
       style="font-family:'MT Extra';-inkscape-font-specification:'MT Extra';fill:#000000"
       id="path774" /><path
       d="M 91.233373,10.816501 H 88.963441 V 8.728592 h 2.269932 z M 91.104886,24.778725 H 89.091928 V 12.818753 h 2.012958 z"
       style="font-family:'MT Extra';-inkscape-font-specification:'MT Extra';fill:#000000"
       id="path776" /><path
       d="m 104.78872,24.778725 h -2.01296 v -1.252746 q -0.86728,0.749506 -1.80952,1.167088 -0.94224,0.417582 -2.04508,0.417582 -2.141445,0 -3.404898,-1.648913 -1.252745,-1.648913 -1.252745,-4.571986 0,-1.520426 0.428289,-2.708928 0.438996,-1.188502 1.177795,-2.023666 0.728091,-0.813749 1.691742,-1.242038 0.974357,-0.428289 2.012958,-0.428289 0.942239,0 1.670329,0.203437 0.72809,0.19273 1.53113,0.610312 V 8.1182801 h 2.01296 z m -2.01296,-2.944488 v -6.863332 q -0.81375,-0.364046 -1.45618,-0.50324 -0.64243,-0.139193 -1.402648,-0.139193 -1.691741,0 -2.633977,1.177794 -0.942236,1.177795 -0.942236,3.340655 0,2.130738 0.728091,3.24429 0.728092,1.102844 2.334175,1.102844 0.856575,0 1.734575,-0.374753 0.87799,-0.38546 1.6382,-0.985065 z"
       style="font-family:'MT Extra';-inkscape-font-specification:'MT Extra';fill:#000000"
       id="path778" /></g><defs
     id="defs234"><linearGradient
       id="paint0_linear_3906_7397"
       x1="0"
       y1="0.945312"
       x2="0"
       y2="31.0543"
       gradientUnits="userSpaceOnUse"><stop
         stop-color="#3291FF"
         id="stop226" /><stop
         offset="1"
         stop-color="#00D58E"
         id="stop228" /></linearGradient></defs></svg>
