<svg width="16" height="18" fill="none" xmlns="http://www.w3.org/2000/svg">
  <path fill-rule="evenodd" clip-rule="evenodd" d="M8 15c.384 0 1-.337 1.58-1.498.216-.43.404-.937.552-1.502H5.868c.148.565.336 1.072.552 1.502C7 14.663 7.616 15 8 15Zm-2.343-4A12.54 12.54 0 0 1 5.5 9c0-.705.056-1.377.157-2h4.686c.101.623.157 1.295.157 2 0 .705-.056 1.377-.157 2H5.657Zm5.506 1c-.248 1.045-.622 1.948-1.082 2.63A6.02 6.02 0 0 0 13.197 12h-2.034Zm2.496-1h-2.304c.094-.634.145-1.305.145-2 0-.695-.05-1.366-.145-2h2.304A5.99 5.99 0 0 1 14 9a5.99 5.99 0 0 1-.341 2Zm-9.014 0H2.34A5.99 5.99 0 0 1 2 9c0-.701.12-1.374.341-2h2.304A13.623 13.623 0 0 0 4.5 9c0 .695.05 1.366.145 2Zm-1.842 1h2.034c.248 1.045.622 1.948 1.082 2.63A6.02 6.02 0 0 1 2.803 12Zm3.065-6h4.264a7.835 7.835 0 0 0-.552-1.503C9 3.337 8.384 3 8 3c-.384 0-1 .337-1.58 1.497A7.837 7.837 0 0 0 5.868 6Zm5.295 0h2.034a6.02 6.02 0 0 0-3.116-2.63c.46.682.834 1.585 1.082 2.63ZM5.92 3.37c-.46.682-.834 1.585-1.082 2.63H2.803a6.02 6.02 0 0 1 3.116-2.63ZM8 2a7 7 0 1 1 0 14A7 7 0 0 1 8 2Z" fill="#262628"/>
</svg>
