<svg width="113" height="50" viewBox="0 0 113 50" fill="none" xmlns="http://www.w3.org/2000/svg">
  <path fill-rule="evenodd" clip-rule="evenodd" d="M33.2577 15.9488C32.3515 13.7577 30.804 12.6465 28.7579 12.6465C26.5667 12.6465 25.018 13.7564 24.2281 15.9488H24.1406V13.6402C24.1118 13.2602 23.8781 13.0565 23.4981 13.0265H20.2832C19.8158 13.0265 19.582 13.2602 19.582 13.6702V31.4644C19.6408 31.8144 19.817 31.9894 20.2545 32.0194L23.7018 31.9894C24.1406 31.9894 24.3443 31.8144 24.3743 31.3769V21.9973C24.3456 20.4186 24.4031 19.3387 24.6081 18.7825C24.9593 17.6138 25.6305 17.0875 26.7417 17.0875C27.8242 17.0875 28.5241 17.6138 28.7579 18.7825C28.8454 19.1912 28.9041 20.2724 28.9041 21.9973V31.3769C28.8466 31.7556 29.0804 31.9894 29.5178 32.0194L32.9952 31.9894C33.4627 31.9894 33.6377 31.8144 33.6377 31.3769V21.9973C33.6377 20.2149 33.7252 19.0749 33.9889 18.5787C34.1351 18.1112 34.4276 17.76 34.8364 17.4975C35.1863 17.235 35.5951 17.0875 36.0625 17.1175C37.2025 17.1175 37.875 17.615 38.0487 18.6662C38.1662 18.93 38.1662 20.0399 38.1662 21.9986V31.3781C38.1662 31.7569 38.3999 31.9906 38.8087 32.0206L42.2573 31.9906C42.7248 31.9906 42.9285 31.8156 42.9285 31.3781V17.2338C42.841 16.1238 42.5185 15.2464 42.081 14.6039C41.1173 13.289 39.8011 12.6465 38.0475 12.6465C36.9675 12.6465 36.0613 12.909 35.2138 13.4927C34.3389 14.0189 33.6377 14.8664 33.2577 15.9488Z" fill="#262628"/>
  <path fill-rule="evenodd" clip-rule="evenodd" d="M65.8944 12.9961C65.4269 12.9961 65.2519 13.1711 65.2519 13.6386V16.1511C65.2519 16.5898 65.4856 16.8236 65.9231 16.8236H71.8844L65.0169 26.5836C64.7544 27.0223 64.6094 27.5773 64.6094 28.3661V30.9086C64.6094 31.1136 64.6669 31.3173 64.8719 31.4048C65.0469 31.5798 65.2219 31.6086 65.3981 31.4923C67.2669 30.4998 69.3406 30.0023 71.5644 30.0323C73.7256 30.0911 75.6544 30.5286 77.4669 31.4923L78.0519 31.4048C78.2269 31.3173 78.3144 31.1411 78.3144 30.9086V28.1911C78.2269 27.7523 78.0519 27.4023 77.7019 27.1973C75.9769 26.2336 73.7844 25.7648 71.1844 25.8523L77.0869 17.4373C77.6719 16.6186 77.9644 16.0923 77.9644 15.7711V13.6386C77.9644 13.1711 77.7294 12.9961 77.3206 12.9961H65.8944Z" fill="#262628"/>
  <path fill-rule="evenodd" clip-rule="evenodd" d="M111.595 14.7502C110.719 13.3177 109.375 12.6465 107.534 12.6465C106.364 12.6465 105.4 12.939 104.641 13.5515C103.94 14.1365 103.326 14.984 102.83 16.2402H102.771V13.5227C102.684 13.259 102.479 13.0552 102.159 13.0252H98.9135C98.5048 13.0252 98.2698 13.2002 98.2698 13.6102V31.3765C98.2423 31.7552 98.4748 31.989 98.8835 32.019L102.332 31.989C102.771 31.989 102.976 31.814 103.034 31.3765V21.8202C103.034 20.3877 103.21 19.2777 103.59 18.4602C103.997 17.4965 104.641 17.0577 105.605 17.0577C106.627 16.999 107.242 17.5827 107.534 18.694C107.651 19.1902 107.737 20.2127 107.767 21.8202V31.4915C107.767 31.8427 108.002 31.9877 108.352 32.0177L111.829 31.9877C112.21 31.9877 112.442 31.8427 112.501 31.4915V20.3002C112.501 17.5552 112.18 15.714 111.595 14.7502Z" fill="#262628"/>
  <path fill-rule="evenodd" clip-rule="evenodd" d="M16.3672 34.1818C16.191 34.4456 16.2497 34.7093 16.5722 34.9731C20.517 38.5379 24.9581 41.3128 29.8966 43.2714C34.9801 45.2564 40.2986 46.2501 45.9371 46.2501C50.1157 46.1913 54.323 45.6076 58.5903 44.3801C63.0314 43.0365 66.8599 41.1953 69.9861 38.8579C70.481 38.4779 70.6573 38.0979 70.336 37.6604C70.0735 37.1917 69.6048 37.133 69.0511 37.3692C61.8039 40.4353 54.3243 41.9265 46.6383 41.9265C41.3498 41.9265 36.1488 41.2253 31.0353 39.8528C26.068 38.5092 21.452 36.6392 17.2147 34.1543C16.8647 33.9206 16.5722 33.9481 16.3672 34.1818Z" fill="#262628"/>
  <path fill-rule="evenodd" clip-rule="evenodd" d="M75.48 33.6554C75.2762 33.4204 74.8362 33.2166 74.0475 33.0416L71.3875 32.8066C68.7575 32.8366 66.625 33.4504 64.93 34.5891C64.6675 34.8241 64.5212 35.0566 64.61 35.2616C64.61 35.4379 64.7837 35.5241 65.1062 35.4654C69.6637 34.9704 72.1775 35.0566 72.7337 35.7566C73.2887 36.4879 72.675 38.9716 71.01 43.1791C70.8337 43.4716 70.9212 43.6766 71.0975 43.7654C71.3012 43.8241 71.535 43.7929 71.7987 43.5604C73.3775 42.2454 74.5175 40.3466 75.2462 37.8616C75.5087 36.8679 75.6562 35.9616 75.7137 35.1441C75.7125 34.3566 75.655 33.8604 75.48 33.6554Z" fill="#262628"/>
  <path fill-rule="evenodd" clip-rule="evenodd" d="M8.15625 20.3312L7.455 20.4187C6.11 20.595 5.03 20.8862 4.24 21.2075C3.07125 21.7337 2.195 22.4337 1.5525 23.37C0.85125 24.3625 0.5 25.5025 0.5 26.8475C0.5 28.5713 0.99625 29.9163 2.02 30.91C2.92625 31.8463 4.1825 32.255 5.73125 32.255C6.66625 32.255 7.455 32.1375 8.15625 31.9325C8.36125 31.875 8.565 31.8162 8.74125 31.7275C9.55875 31.3775 10.435 30.705 11.4 29.74L12.2475 30.88L13.4163 32.0788C13.7375 32.225 14 32.1963 14.2338 31.9913L16.8925 29.6838C17.1838 29.4788 17.1838 29.1287 16.8925 28.7775L16.015 27.4325C15.7237 26.8487 15.6062 26.2638 15.6062 25.5925V20.1863C15.6062 18.5488 15.5188 17.44 15.46 16.9425C15.2838 15.8312 14.7875 14.8975 14.0575 14.225C12.89 13.055 11.1375 12.5 8.8575 12.5C8.62375 12.5 8.39 12.5 8.15625 12.5C6.54875 12.5875 5.17625 12.9675 4.03625 13.64C2.42875 14.5462 1.46375 15.9488 1.11375 17.8188C0.99625 18.1988 1.17125 18.4325 1.61 18.5487L4.94125 18.87C5.2925 18.87 5.49625 18.665 5.555 18.2263C5.73 17.5838 6.05125 17.0575 6.6075 16.7075C7.01625 16.3863 7.5425 16.2113 8.15625 16.1825C8.21375 16.1525 8.2725 16.1525 8.3325 16.1525C9.2375 16.1525 9.91 16.475 10.3188 17.0875C10.5238 17.35 10.6688 17.76 10.6988 18.315L10.7275 20.0388L8.15625 20.3312ZM8.15625 28.7475C8.01 28.7762 7.835 28.7762 7.6875 28.7762C7.01625 28.7762 6.49 28.5425 6.13875 28.075C5.75875 27.665 5.555 27.0525 5.555 26.2625C5.555 24.655 6.43125 23.6038 8.15625 23.1363C8.8575 22.9313 9.73375 22.845 10.7275 22.845V23.5462C10.6988 24.4812 10.6688 25.125 10.6688 25.475C10.5813 26.1175 10.3475 26.6725 10.055 27.1988C9.55875 28.1038 8.94625 28.6 8.15625 28.7475Z" fill="#262628"/>
  <path fill-rule="evenodd" clip-rule="evenodd" d="M53.6179 20.3312L52.9166 20.4187C51.5716 20.595 50.4916 20.8862 49.7029 21.2075C48.5341 21.7337 47.6579 22.4337 47.0154 23.37C46.3129 24.3625 45.9629 25.5025 45.9629 26.8475C45.9629 28.5713 46.4591 29.9163 47.4816 30.91C48.3879 31.8463 49.6441 32.255 51.1929 32.255C52.1279 32.255 52.9166 32.1375 53.6179 31.9325C53.8229 31.875 54.0279 31.8162 54.2029 31.7275C55.0204 31.3775 55.8966 30.705 56.8616 29.74L57.7091 30.88L58.8779 32.0788C59.1991 32.225 59.4629 32.1963 59.6966 31.9913L62.3554 29.6838C62.6466 29.4788 62.6466 29.1287 62.3554 28.7775L61.4779 27.4325C61.1854 26.8487 61.0691 26.2638 61.0691 25.5925V20.1863C61.0691 18.5488 60.9816 17.44 60.9229 16.9425C60.7479 15.8312 60.2516 14.8975 59.5204 14.225C58.3516 13.055 56.5991 12.5 54.3191 12.5C54.0854 12.5 53.8516 12.5 53.6179 12.5C52.0104 12.5875 50.6379 12.9675 49.4979 13.64C47.8904 14.5462 46.9266 15.9488 46.5754 17.8188C46.4591 18.1988 46.6341 18.4325 47.0716 18.5487L50.4029 18.87C50.7541 18.87 50.9579 18.665 51.0166 18.2263C51.1929 17.5838 51.5141 17.0575 52.0691 16.7075C52.4779 16.3863 53.0041 16.2113 53.6179 16.1825C53.6766 16.1525 53.7341 16.1525 53.7941 16.1525C54.6991 16.1525 55.3716 16.475 55.7804 17.0875C55.9854 17.35 56.1316 17.76 56.1604 18.315L56.1891 20.0388L53.6179 20.3312ZM53.6179 28.7475C53.4716 28.7762 53.2966 28.7762 53.1504 28.7762C52.4779 28.7762 51.9529 28.5425 51.6016 28.075C51.2216 27.665 51.0166 27.0525 51.0166 26.2625C51.0166 24.655 51.8941 23.6038 53.6179 23.1363C54.3191 22.9313 55.1966 22.845 56.1904 22.845V23.5462C56.1616 24.4812 56.1316 25.125 56.1316 25.475C56.0429 26.1175 55.8104 26.6725 55.5179 27.1988C55.0204 28.1038 54.4066 28.6 53.6179 28.7475Z" fill="#262628"/>
  <path fill-rule="evenodd" clip-rule="evenodd" d="M87.7798 12.6458C85.3548 12.6458 83.396 13.6095 81.9935 15.5095C80.6498 17.262 79.9473 19.5995 79.9473 22.492C79.9473 25.3558 80.6498 27.6645 81.9935 29.5058C83.3673 31.4633 85.3248 32.427 87.7798 32.427C87.7798 32.427 87.8073 32.427 87.8373 32.427C90.176 32.397 92.076 31.4333 93.536 29.592C94.9398 27.752 95.6698 25.5008 95.6698 22.7245C95.6698 19.7745 94.9673 17.437 93.6548 15.5945C92.2223 13.637 90.2648 12.6445 87.8385 12.6445C87.8085 12.6458 87.7798 12.6458 87.7798 12.6458ZM87.8373 28.6883C87.8085 28.6883 87.7798 28.6883 87.7798 28.6883C86.5823 28.6883 85.7923 27.8708 85.3835 26.1758C85.2073 25.2408 85.0923 23.867 85.0923 21.9383C85.0923 20.3895 85.2085 19.162 85.4723 18.3145C85.881 16.9695 86.6698 16.2695 87.8085 16.2695C87.8085 16.2695 87.8085 16.2695 87.8373 16.2695C88.9185 16.2983 89.6798 16.912 90.0585 18.052C90.4085 19.1633 90.5548 20.7108 90.5548 22.727C90.5548 24.3933 90.4373 25.7083 90.1748 26.5558C89.7373 27.987 88.9485 28.6883 87.8373 28.6883Z" fill="#262628"/>
</svg>
