<svg width="142" height="50" viewBox="0 0 142 50" fill="none" xmlns="http://www.w3.org/2000/svg">
  <path d="M15.2575 10H1V24.2575H15.2575V10Z" fill="#262628"/>
  <path d="M31.0009 10H16.7422V24.2575H31.0009V10Z" fill="#262628"/>
  <path d="M15.2575 25.7422H1V39.9997H15.2575V25.7422Z" fill="#262628"/>
  <path d="M31.0009 25.7422H16.7422V39.9997H31.0009V25.7422Z" fill="#262628"/>
  <path d="M135.569 23.5823H131.046V33.9998H127.971V23.5823H125.811V21.096H127.971V19.2998C127.971 17.9448 128.412 16.8323 129.296 15.966C130.178 15.101 131.309 14.666 132.689 14.666C133.059 14.666 133.386 14.6848 133.671 14.7223C133.956 14.7598 134.206 14.8173 134.423 14.891V17.516C134.323 17.4573 134.147 17.386 133.896 17.3035C133.646 17.2185 133.354 17.1773 133.031 17.1773C132.394 17.1773 131.904 17.376 131.561 17.7735C131.218 18.1698 131.047 18.7598 131.047 19.5373V21.0935H135.571V18.1935L138.622 17.2648V21.0935H141.697V23.5798H138.622V29.616C138.622 30.4123 138.766 30.971 139.053 31.2998C139.342 31.626 139.798 31.7898 140.416 31.7898C140.592 31.7898 140.806 31.7473 141.051 31.6635C141.298 31.5798 141.512 31.4798 141.698 31.3623V33.8748C141.506 33.9835 141.184 34.0848 140.736 34.176C140.291 34.2673 139.847 34.3135 139.412 34.3135C138.132 34.3135 137.169 33.9748 136.531 33.291C135.889 32.6098 135.569 31.5823 135.569 30.2085V23.5823ZM115.399 27.636C115.399 28.9835 115.704 30.0123 116.314 30.7235C116.924 31.436 117.799 31.7923 118.939 31.7923C120.044 31.7923 120.886 31.436 121.463 30.7235C122.041 30.0135 122.329 28.9573 122.329 27.561C122.329 26.171 122.031 25.1235 121.432 24.416C120.832 23.7085 119.994 23.3535 118.914 23.3535C117.799 23.3535 116.936 23.7248 116.323 24.466C115.706 25.2073 115.399 26.2635 115.399 27.636ZM112.236 27.736C112.236 25.6023 112.837 23.9123 114.043 22.6648C115.248 21.4173 116.922 20.7923 119.064 20.7923C121.081 20.7923 122.656 21.3935 123.791 22.5935C124.924 23.7948 125.489 25.416 125.489 27.4585C125.489 29.551 124.889 31.216 123.683 32.4548C122.479 33.6935 120.839 34.311 118.763 34.311C116.761 34.311 115.173 33.7235 113.998 32.5485C112.824 31.3748 112.236 29.771 112.236 27.736ZM105.394 24.4848C105.394 24.9198 105.532 25.2623 105.809 25.5085C106.084 25.756 106.696 26.0673 107.643 26.4435C108.857 26.9298 109.708 27.4748 110.197 28.0823C110.688 28.6873 110.932 29.4223 110.932 30.2848C110.932 31.4973 110.463 32.4735 109.532 33.2098C108.598 33.9473 107.336 34.3135 105.747 34.3135C105.212 34.3135 104.621 34.2498 103.971 34.1198C103.322 33.9898 102.771 33.8235 102.319 33.6248V30.636C102.872 31.0198 103.468 31.326 104.103 31.551C104.741 31.7773 105.318 31.891 105.837 31.891C106.523 31.891 107.029 31.7948 107.354 31.601C107.682 31.4073 107.844 31.0873 107.844 30.6348C107.844 30.2148 107.676 29.8623 107.338 29.5735C106.998 29.2835 106.357 28.9523 105.411 28.5773C104.289 28.1085 103.494 27.5798 103.024 26.9948C102.557 26.4073 102.321 25.6635 102.321 24.7585C102.321 23.596 102.782 22.6385 103.709 21.8898C104.633 21.1423 105.831 20.7673 107.306 20.7673C107.757 20.7673 108.263 20.8185 108.824 20.9185C109.384 21.0185 109.853 21.1485 110.231 21.3085V24.1948C109.827 23.9285 109.359 23.6985 108.824 23.5048C108.288 23.3123 107.757 23.216 107.231 23.216C106.652 23.216 106.204 23.3285 105.881 23.5548C105.556 23.781 105.394 24.091 105.394 24.4848ZM90.7832 27.636C90.7832 28.9835 91.0869 30.0123 91.6982 30.7235C92.3082 31.436 93.1832 31.7923 94.3219 31.7923C95.4269 31.7923 96.2694 31.436 96.8469 30.7235C97.4244 30.0135 97.7107 28.9573 97.7107 27.561C97.7107 26.171 97.4132 25.1235 96.8132 24.416C96.2144 23.7085 95.3769 23.3535 94.2969 23.3535C93.1832 23.3535 92.3194 23.7248 91.7032 24.466C91.0894 25.2073 90.7832 26.2635 90.7832 27.636ZM87.6182 27.736C87.6182 25.6023 88.2219 23.9123 89.4269 22.6648C90.6319 21.4173 92.3069 20.7923 94.4482 20.7923C96.4644 20.7923 98.0419 21.3935 99.1744 22.5935C100.307 23.7948 100.874 25.416 100.874 27.4585C100.874 29.551 100.272 31.216 99.0694 32.4548C97.8619 33.6935 96.2219 34.311 94.1469 34.311C92.1457 34.311 90.5594 33.7235 89.3819 32.5485C88.2069 31.3748 87.6182 29.771 87.6182 27.736ZM86.3119 20.8823C86.5532 20.8823 86.7719 20.8985 86.9644 20.9335C87.1569 20.9648 87.3194 21.0073 87.4544 21.0585V24.1348C87.2969 24.0185 87.0632 23.9073 86.7569 23.8023C86.452 23.6973 86.0819 23.6448 85.6457 23.6448C84.9007 23.6448 84.2707 23.9585 83.7557 24.586C83.2419 25.2135 82.9844 26.1798 82.9844 27.4848V33.9998H79.9469V21.096H82.9844V23.1285H83.0357C83.3119 22.4248 83.7307 21.8748 84.2907 21.4785C84.8507 21.0823 85.5257 20.8823 86.3119 20.8823ZM74.6644 31.7923C75.1157 31.7923 75.6132 31.6873 76.1569 31.4785C76.7007 31.2685 77.2032 30.9923 77.6644 30.6498V33.4723C77.1782 33.751 76.6269 33.9585 76.0119 34.0998C75.3982 34.2435 74.7207 34.3135 73.9857 34.3135C72.0857 34.3135 70.5419 33.7135 69.3544 32.5135C68.1657 31.3135 67.5719 29.7785 67.5719 27.9123C67.5719 25.8373 68.1782 24.1285 69.3932 22.7848C70.6044 21.441 72.3257 20.7685 74.5507 20.7685C75.1207 20.7685 75.6957 20.8423 76.2757 20.9885C76.8582 21.136 77.3194 21.3048 77.6644 21.496V24.4098C77.1944 24.0673 76.7169 23.8023 76.2269 23.6123C75.7369 23.4248 75.2369 23.3298 74.7257 23.3298C73.5307 23.3298 72.5632 23.7198 71.8269 24.4985C71.0907 25.276 70.7219 26.326 70.7219 27.6473C70.7219 28.9535 71.0769 29.9698 71.7832 30.6985C72.4894 31.4273 73.4494 31.7923 74.6644 31.7923ZM65.4494 33.9998H62.412V21.096H65.4494V33.9998ZM62.0969 17.3673C62.0969 16.8648 62.2795 16.4448 62.6445 16.106C63.0082 15.7673 63.4419 15.596 63.9432 15.596C64.4794 15.596 64.9232 15.7723 65.2744 16.1173C65.6257 16.4648 65.8007 16.881 65.8007 17.3673C65.8007 17.861 65.6207 18.276 65.2619 18.6098C64.9019 18.9448 64.4632 19.1123 63.9432 19.1123C63.4257 19.1123 62.9869 18.9435 62.6319 18.6035C62.2757 18.2648 62.0969 17.8535 62.0969 17.3673ZM59.4844 15.9998V33.9998H56.3569V19.8923H56.3069L50.7207 33.9998H48.6495L42.9257 19.891H42.8882V33.9998H40.002V15.9998H44.4807L49.6545 29.3435H49.7295L55.1907 15.9998H59.4844Z" fill="#262628"/>
</svg>
