<svg width="154" height="50" viewBox="0 0 154 50" fill="none" xmlns="http://www.w3.org/2000/svg">
  <path d="M13.1242 17.1318V19.2597C13.1242 19.3988 13.0319 19.4924 12.8928 19.4924H3.75252V23.8419H11.2959C11.435 23.8419 11.5273 23.9342 11.5273 24.0733V26.2025C11.5273 26.3416 11.435 26.4339 11.2959 26.4339H3.75252V32.8671C3.75252 33.0062 3.66023 33.0985 3.52114 33.0985H1.23138C1.09229 33.0972 1 33.0062 1 32.8658V17.1318C1 16.9927 1.09229 16.9004 1.23138 16.9004H12.8928C13.0319 16.9017 13.1242 16.9927 13.1242 17.1318Z" fill="#262628"/>
  <path d="M26.9265 26.2486C26.0825 23.912 25.145 21.5755 24.1846 19.4462H23.6403C22.68 21.5755 21.7317 23.912 20.8864 26.2486H26.9265ZM31.7735 33.0978H29.251C29.1119 33.0978 29.0196 33.0283 28.9848 32.8905C28.6491 31.5597 28.2452 30.1594 27.7825 28.7484H20.0425C19.5797 30.1594 19.1745 31.5597 18.8508 32.8905C18.816 33.0296 18.7237 33.0978 18.5846 33.0978H16.1558C15.9939 33.0978 15.9017 33.0069 15.9471 32.8437C17.405 27.6851 19.6252 21.9928 21.8708 17.2033C21.9751 16.9839 22.1022 16.9023 22.3215 16.9023H25.6077C25.8284 16.9023 25.9555 16.9839 26.0584 17.2033C28.3255 21.9807 30.5136 27.6851 31.9821 32.8437C32.0276 33.0069 31.9353 33.0978 31.7735 33.0978Z" fill="#262628"/>
  <path d="M35.9141 25.138C35.9141 20.1172 39.223 16.5996 43.9429 16.5996H44.2893C47.2505 16.5996 49.5416 18.1043 50.756 20.279C50.8376 20.4181 50.8135 20.5331 50.6744 20.6027L48.6388 21.6084C48.4997 21.6793 48.3258 21.6793 48.2335 21.5055C47.3776 20.0249 46.0936 19.2384 44.1957 19.2384H43.8493C40.8761 19.2384 38.8284 21.5991 38.8284 25.023C38.8284 28.4576 40.8413 30.7608 43.8493 30.7608H44.1957C46.139 30.7608 47.2732 30.1014 48.1412 29.0956C48.2563 28.9672 48.3847 28.9445 48.5238 29.014L50.6169 30.0319C50.6985 30.0773 50.7319 30.1362 50.7319 30.1937C50.7319 30.2512 50.7092 30.298 50.6624 30.3676C49.3784 32.2414 47.0646 33.3996 44.2412 33.3996H43.8948C39.0959 33.3996 35.9141 30.1014 35.9141 25.138Z" fill="#262628"/>
  <path d="M69.1892 30.7365V32.8658C69.1892 33.0049 69.0969 33.0972 68.9578 33.0972H56.8095C56.6704 33.0972 56.5781 33.0062 56.5781 32.8658V17.1318C56.5781 16.9927 56.6704 16.9004 56.8095 16.9004H68.7491C68.8882 16.9004 68.9805 16.9913 68.9805 17.1318V19.2597C68.9805 19.3988 68.8882 19.4924 68.7491 19.4924H59.3306V23.7028H66.9904C67.1295 23.7028 67.2217 23.7951 67.2217 23.9342V26.0393C67.2217 26.1784 67.1295 26.2707 66.9904 26.2707H59.3306V30.5052H68.9564C69.0955 30.5052 69.1892 30.5988 69.1892 30.7365Z" fill="#262628"/>
  <path d="M87.281 28.412C87.281 26.9074 86.286 26.2253 84.0992 26.2253H78.6503V30.5747H84.0992C86.3207 30.5747 87.281 29.9274 87.281 28.412ZM83.3235 19.4215H78.649V23.7723H83.3235C85.4179 23.7723 86.3783 23.0889 86.3783 21.5976C86.3783 20.105 85.4179 19.4229 83.3235 19.4215ZM90.1045 28.6554C90.1045 31.4895 87.9297 33.0972 84.0872 33.0972H76.1279C75.9888 33.0972 75.8965 33.0062 75.8965 32.8658V17.1318C75.8965 16.9927 75.9888 16.9004 76.1279 16.9004H83.3823C87.1192 16.9004 89.1548 18.3796 89.1548 21.088C89.1548 22.8695 88.2521 24.0385 86.4237 24.5815C88.993 25.1258 90.1045 26.6639 90.1045 28.6554Z" fill="#262628"/>
  <path d="M103.629 30.7608C106.949 30.7608 109.043 28.4817 109.043 24.9989C109.043 21.5162 106.949 19.2371 103.629 19.2371H103.282C99.962 19.2371 97.8675 21.5162 97.8675 24.9989C97.8675 28.4817 99.9606 30.7608 103.282 30.7608H103.629ZM94.9531 24.9989C94.9531 20.1172 98.1925 16.5996 103.283 16.5996H103.631C108.721 16.5996 111.96 20.1172 111.96 24.9989C111.96 29.8807 108.721 33.3983 103.631 33.3983H103.283C98.1925 33.3996 94.9531 29.8821 94.9531 24.9989Z" fill="#262628"/>
  <path d="M125.332 30.7608C128.653 30.7608 130.746 28.4817 130.746 24.9989C130.746 21.5162 128.653 19.2371 125.332 19.2371H124.985C121.664 19.2371 119.57 21.5162 119.57 24.9989C119.57 28.4817 121.663 30.7608 124.985 30.7608H125.332ZM116.654 24.9989C116.654 20.1172 119.894 16.5996 124.985 16.5996H125.332C130.424 16.5996 133.663 20.1172 133.663 24.9989C133.663 29.8807 130.424 33.3983 125.332 33.3983H124.985C119.895 33.3996 116.654 29.8821 116.654 24.9989Z" fill="#262628"/>
  <path d="M153.619 33.0972H150.634C150.438 33.0972 150.355 33.0517 150.228 32.9019C148.135 30.437 145.66 27.984 143.553 26.1798H142.212V32.8671C142.212 33.0062 142.119 33.0985 141.98 33.0985H139.689C139.55 33.0985 139.459 33.0076 139.459 32.8671V17.1318C139.459 16.9927 139.551 16.9004 139.689 16.9004H141.98C142.119 16.9004 142.212 16.9913 142.212 17.1318V23.5169H143.577C145.833 21.4812 147.916 19.2824 149.617 17.0729C149.732 16.9231 149.824 16.9004 149.964 16.9004H152.787C152.926 16.9004 152.996 16.9699 152.996 17.0609C152.996 17.1077 152.971 17.1652 152.914 17.2348C150.428 20.3016 147.961 22.812 145.684 24.7554C148.552 27.1842 151.272 29.8926 153.747 32.8083C153.873 32.9581 153.803 33.0972 153.619 33.0972Z" fill="#262628"/>
</svg>
