<svg width="139" height="50" viewBox="0 0 139 50" fill="none" xmlns="http://www.w3.org/2000/svg">
  <path d="M118.346 23.125V33.9806H121.827V26.7538H134.498V33.9806H137.978V23.1443L118.346 23.125Z" fill="#262628"/>
  <path d="M121.438 19.6136H134.825C136.684 19.2445 138.067 17.6037 138.457 16.0156H117.807C118.194 17.6037 119.597 19.2445 121.438 19.6136Z" fill="#262628"/>
  <path d="M107.804 33.9881C109.559 33.2449 110.504 31.9577 110.866 30.4519H95.2497L95.26 16.0254L91.7598 16.0357V33.9881H107.804Z" fill="#262628"/>
  <path d="M65.7306 19.5636H78.0933C79.9565 19.0222 81.5227 17.6026 81.9047 16.0273H62.2651V26.636H78.3389V30.36L65.7306 30.369C63.7555 30.9206 62.0787 32.2464 61.2441 33.9991L62.2651 33.9798H81.7928V23.1075H65.7306V19.5636Z" fill="#262628"/>
  <path d="M35.2095 19.5992H48.5918C50.4525 19.2276 51.8361 17.5894 52.2245 16H31.5742C31.96 17.5894 33.3642 19.2276 35.2095 19.5992Z" fill="#262628"/>
  <path d="M35.2095 26.6943H48.5918C50.4525 26.3278 51.8361 24.687 52.2245 23.0977H31.5742C31.96 24.6883 33.3642 26.3278 35.2095 26.6943Z" fill="#262628"/>
  <path d="M35.2095 33.9866H48.5918C50.4525 33.6163 51.8361 31.9768 52.2245 30.3887H31.5742C31.96 31.9768 33.3642 33.6163 35.2095 33.9866Z" fill="#262628"/>
  <path d="M0.394531 16.0425C0.797017 17.6113 2.15493 19.2161 4.01819 19.6173H9.65171L9.93975 19.7305V33.9448H13.4567V19.7305L13.7756 19.6173H19.4142C21.2994 19.1325 22.6277 17.6113 23.0238 16.0425V16.0078H0.394531V16.0425Z" fill="#262628"/>
</svg>
