<svg width="133" height="50" viewBox="0 0 133 50" fill="none" xmlns="http://www.w3.org/2000/svg">
  <path d="M72.395 35.045H89.3475V32.9487H75.2875V26.3487H85.8563V24.2325H75.2875V18.155H89.3475V16.0325H72.395V35.045Z" fill="#262628"/>
  <path d="M81.205 13.0251L78.885 15.6001L86.1175 13.0251H81.205Z" fill="#262628"/>
  <path d="M117.782 32.9512V16.0337H115.139V35.0449H132.25V32.9487L117.782 32.9512Z" fill="#262628"/>
  <path d="M100.307 16.0337L90.6799 35.0449H93.9437L96.3962 30.1324H107.941L110.455 35.0449H113.666L104.009 16.0337H100.307ZM97.6274 27.7299L102.171 18.7174L106.769 27.7299H97.6274Z" fill="#262628"/>
  <path d="M63.1949 27.1274C67.5362 25.9549 67.9624 22.7349 67.9449 21.5699C67.6824 18.1899 65.4187 16.0337 61.3187 16.0337H49.3462V35.0449H52.0949V27.0974H59.8587L65.5862 35.0449H69.0187C69.0199 35.0449 64.9087 29.6824 63.1949 27.1274ZM60.9487 24.8387H52.0949V18.3337H61.2587C63.3424 18.3337 64.5437 19.3124 64.9724 20.5562C65.1024 21.0199 65.1362 21.5049 65.0724 21.9812C65.0087 22.4587 64.8487 22.9174 64.6012 23.3312C63.8312 24.5649 62.3599 24.8387 60.9487 24.8387Z" fill="#262628"/>
  <path d="M32.9788 12.875C25.3038 12.875 20.1025 18.3062 20.1025 24.845C20.1025 31.7512 25.8575 36.6175 32.9788 36.6175C40.1475 36.6175 45.9038 31.8037 45.9038 24.845C45.9025 18.305 40.6338 12.875 32.9788 12.875ZM32.8863 34.2837C27.6063 34.2837 23.2238 30.0112 23.2238 24.8537C23.2675 22.2862 24.3188 19.8375 26.15 18.0362C27.9813 16.2362 30.4475 15.2275 33.0163 15.2275C35.5838 15.2275 38.05 16.2362 39.8825 18.0362C41.7138 19.8375 42.765 22.285 42.8088 24.8537C42.8088 30.01 38.215 34.2825 32.8863 34.2837Z" fill="#262628"/>
  <path d="M13.2112 22.8024H15.1974L18.7599 16.0337H15.9024L13.2112 22.8024Z" fill="#262628"/>
  <path d="M3.61625 32.9512V16.0337H1V35.0449H18.0938V32.9487L3.61625 32.9512Z" fill="#262628"/>
</svg>
