<svg width="88" height="50" viewBox="0 0 88 50" fill="none" xmlns="http://www.w3.org/2000/svg">
  <path d="M79.915 27.7812L87.0925 19.6737H78.6875L75.7662 23.0338L72.7337 19.6737H56.75V17.5125H64.305V11H43.9437V21.2163H43.875C42.5838 19.7288 40.98 19.2162 39.1087 19.2162C35.285 19.2162 32.4025 21.84 31.3938 25.2913C28.9688 17.25 18.2763 17.4987 14.9775 23.3962V20.12H7.59624V16.5738H15.6775V11.0113H1V35.9688H7.5975V25.4825H14.1825C13.9813 26.2512 13.8725 27.0762 13.8725 27.9437C13.8725 37.8362 27.6887 40.3125 31.4062 31.1513H25.7512C23.7712 33.98 19.5825 32.3563 19.5825 29.175H31.095C31.5925 33.3025 34.7863 36.8738 39.19 36.8738C41.0888 36.8738 42.8263 35.9413 43.8888 34.3575H43.9563V35.9675H72.5325L75.5075 32.5825L78.51 35.9675H87.185L79.915 27.7812ZM19.7588 25.5375C20.5813 21.9725 25.375 22.07 26.0212 25.5375H19.7588ZM40.4175 32.1538C35.7562 32.1538 35.8375 23.6525 40.4175 23.6525C44.8075 23.6525 45.0625 32.1538 40.4175 32.1538ZM63.0137 34.7375H50.3012V12.2025H63.0938V16.2913H55.54V20.8788H63.0137V24.68H55.4588V30.7325H63.0137V34.7375ZM56.8312 29.3525V26.05H64.3862V20.0937L71.2125 27.8125L64.3862 35.5225V29.3512H56.8312V29.3525ZM75.495 30.7475L71.9787 34.7375H66.85L72.99 27.8125L66.85 20.8788H72.195L75.7763 24.845L79.2238 20.8788H84.41L78.2937 27.78L84.4887 34.735H79.0362L75.495 30.7475Z" fill="#262628"/>
</svg>
