<svg width="142" height="50" viewBox="0 0 142 50" fill="none" xmlns="http://www.w3.org/2000/svg">
  <path d="M0.599609 15.2368C0.599609 15.2368 4.10251 29.5912 4.66169 31.9214C5.31437 34.6405 6.49012 35.6414 9.8804 34.9665L12.0682 26.067C12.6219 23.8555 12.9938 22.2806 13.3502 20.0311H13.4131C13.6632 22.3018 14.0202 23.8625 14.4762 26.074C14.4762 26.074 15.3669 30.1142 15.8228 32.2368C16.28 34.3582 17.5523 35.6948 20.8733 34.9665L26.0856 15.2368H21.8772L20.098 23.7678C19.6196 26.251 19.1855 28.1908 18.8506 30.463H18.7914C18.4879 28.2136 18.1008 26.3505 17.6145 23.9314L15.7615 15.2368H11.377L9.39499 23.7119C8.83338 26.2874 8.30882 28.3663 7.97428 30.5602H7.91386C7.57173 28.4944 7.11637 25.8809 6.62307 23.3883C6.62307 23.3883 5.44552 17.3263 5.03236 15.2368L0.600832 15.238L0.599609 15.2368ZM40.7166 15.2368V34.9665H44.7228V30.7757V15.2344H40.7166V15.2368ZM97.1466 15.2368V29.7915C97.1466 31.7978 97.5236 33.2043 98.3323 34.0628C99.0366 34.8135 100.2 35.3008 101.593 35.3008C102.778 35.3008 103.944 35.0755 104.491 34.8715L104.44 31.7408C104.031 31.8403 103.562 31.9211 102.919 31.9211C101.553 31.9211 101.095 31.0459 101.095 29.2448V23.6761H104.586V19.9015H101.095V15.2365H97.1466V15.2368ZM31.7624 19.8095C29.2722 19.8095 27.296 20.5092 26.2186 21.1316L27.0073 23.8318C27.9927 23.2104 29.5628 22.6959 31.0497 22.6959C33.5107 22.6889 33.9129 24.088 33.9129 24.9833V25.1955C28.55 25.1885 25.1622 27.043 25.1622 30.8258C25.1622 33.1357 26.8871 35.2998 29.8861 35.2998C31.7318 35.2998 33.2757 34.5634 34.2007 33.3846H34.2915C34.2915 33.3846 34.9047 35.9461 38.2795 34.9665C38.1022 33.9004 38.0448 32.7632 38.0448 31.3947V26.1226C38.0445 22.7645 36.6102 19.8095 31.7624 19.8095ZM55.7291 19.8095C53.2222 19.8095 52.0956 21.0809 51.412 22.1585H51.3528V20.1437H47.5296V34.9665H51.5568V26.2744C51.5568 25.8664 51.6036 25.4347 51.7459 25.0601C52.0799 24.1849 52.8937 23.1628 54.1939 23.1628C55.8193 23.1628 56.5797 24.5358 56.5797 26.5187V34.9665H60.6032V26.1678C60.6032 25.7801 60.6567 25.3117 60.7711 24.9678C61.102 23.9718 61.9799 23.1606 63.1879 23.1606C64.8356 23.1606 65.627 24.5124 65.627 26.8451V34.9668H69.6542V26.2367C69.6542 21.6334 67.3158 19.8095 64.6762 19.8095C63.5075 19.8095 62.5849 20.1037 61.7513 20.6158C61.0504 21.045 60.4226 21.6558 59.8741 22.4609H59.8149C59.1762 20.8635 57.6792 19.8095 55.7285 19.8095H55.7291ZM77.8485 19.8095C75.3583 19.8095 73.3827 20.5092 72.3035 21.1316L73.0943 23.8318C74.0797 23.2104 75.6498 22.6959 77.1367 22.6959C79.595 22.6889 79.9981 24.088 79.9981 24.9833V25.1955C74.6358 25.1885 71.248 27.043 71.248 30.8258C71.248 33.1357 72.9735 35.2998 75.9734 35.2998C77.8185 35.2998 79.3612 34.5634 80.2862 33.3846H80.3764C80.3764 33.3846 80.9896 35.9461 84.3656 34.9665C84.1877 33.9004 84.1309 32.7632 84.1309 31.3947V26.1226C84.1309 22.7645 82.696 19.8095 77.8485 19.8095ZM94.5756 19.8095C93.0329 19.8095 91.2767 20.8055 90.5415 22.9402H90.43V20.144H86.8039V34.9668H90.9364V27.3775C90.9364 26.9671 90.9613 26.6104 91.0253 26.2832C91.3313 24.6931 92.5481 23.6767 94.2936 23.6767C94.7726 23.6767 95.1154 23.7289 95.4866 23.7823V19.9024C95.1758 19.8377 94.9624 19.8095 94.5756 19.8095ZM34.0429 27.822V29.6707C34.0429 29.9457 34.0186 30.2269 33.9433 30.4746C33.6333 31.5003 32.569 32.3683 31.2391 32.3683C30.131 32.3683 29.2498 31.7386 29.2498 30.4081C29.2498 28.3711 31.491 27.8089 34.0429 27.822ZM80.1277 27.822V29.6707C80.1277 29.9457 80.1041 30.2269 80.0294 30.4746C79.7197 31.5003 78.6563 32.3683 77.3246 32.3683C76.2159 32.3683 75.3346 31.7386 75.3346 30.4081C75.3346 28.3708 77.5783 27.8086 80.129 27.8217H80.1277V27.822Z" fill="#262628"/>
  <path d="M126.248 8.09961C124.956 8.09961 123.928 8.82303 123.928 9.70157L124.713 18.5965C124.8 19.1326 125.456 19.5452 126.25 19.5452C127.045 19.544 127.699 19.1326 127.788 18.5965L128.576 9.70157C128.576 8.82273 127.546 8.09961 126.25 8.09961H126.248ZM113.449 15.236C112.776 15.2502 112.013 15.759 111.529 16.5996C110.879 17.7213 110.995 18.9723 111.754 19.4125L119.849 23.181C120.354 23.3696 121.042 23.0101 121.439 22.325C121.838 21.6349 121.808 20.8617 121.386 20.5178L114.076 15.3902C113.886 15.2788 113.673 15.2302 113.449 15.236ZM139.051 15.236C138.827 15.229 138.613 15.2788 138.424 15.3902L131.112 20.5178C130.693 20.8617 130.662 21.6349 131.059 22.325H131.061C131.459 23.0104 132.143 23.3696 132.65 23.181L140.749 19.4125C141.511 18.9726 141.62 17.7216 140.975 16.5996C140.488 15.7599 139.724 15.2502 139.053 15.236H139.051ZM120.151 26.9708C120.047 26.9684 119.945 26.9851 119.85 27.0206L111.754 30.7855C110.995 31.2266 110.88 32.4788 111.529 33.6005C112.176 34.7189 113.317 35.2501 114.077 34.8112L121.388 29.6884C121.809 29.3399 121.84 28.5655 121.44 27.8764L121.444 27.8788C121.12 27.3184 120.605 26.9757 120.151 26.9708ZM132.35 26.9708C131.897 26.9757 131.383 27.3184 131.059 27.8791L131.062 27.8767C130.663 28.5658 130.695 29.3399 131.114 29.6887L138.425 34.8115C139.184 35.2501 140.326 34.7189 140.975 33.6008C141.619 32.4791 141.51 31.2269 140.748 30.7858L132.652 27.0209C132.557 26.9854 132.455 26.9687 132.351 26.9711H132.35V26.9708ZM126.248 30.6565C125.455 30.6577 124.8 31.069 124.714 31.6039L123.928 40.4977C123.928 41.3786 124.956 42.0996 126.249 42.0996C127.546 42.0996 128.576 41.3786 128.576 40.4977L127.788 31.6039C127.7 31.069 127.046 30.6577 126.251 30.6565H126.248Z" fill="#262628"/>
</svg>
