<svg width="108" height="50" viewBox="0 0 108 50" fill="none" xmlns="http://www.w3.org/2000/svg">
  <path d="M26.621 19.862H14.1647V23.5582H22.9985C22.5622 28.7407 18.251 30.952 14.1797 30.952C8.97223 30.952 4.42723 26.8545 4.42723 21.1107C4.42723 15.5157 8.75973 11.2082 14.191 11.2082C18.3822 11.2082 20.851 13.8795 20.851 13.8795L23.4385 11.1995C23.4385 11.1995 20.1172 7.50195 14.0585 7.50195C6.34348 7.5007 0.375977 14.012 0.375977 21.0445C0.375977 27.9357 5.98973 34.6557 14.256 34.6557C21.5247 34.6557 26.846 29.6757 26.846 22.312C26.846 20.7582 26.621 19.8607 26.621 19.862Z" fill="#262628"/>
  <path d="M36.8748 20.6123C39.3873 20.6123 41.7698 22.6448 41.7698 25.9186C41.7698 29.1236 39.3986 31.2136 36.8636 31.2136C34.0773 31.2136 31.8811 28.9823 31.8811 25.8936C31.8811 22.8698 34.0498 20.6123 36.8748 20.6123ZM36.8236 17.1836C31.7136 17.1836 28.0498 21.1786 28.0498 25.8398C28.0498 30.5686 31.6023 34.6398 36.8836 34.6398C41.6636 34.6398 45.5811 30.9848 45.5811 25.9423C45.5811 20.1611 41.0261 17.1836 36.8236 17.1836Z" fill="#262628"/>
  <path d="M55.9559 20.6123C58.4696 20.6123 60.8509 22.6448 60.8509 25.9186C60.8509 29.1236 58.4796 31.2136 55.9446 31.2136C53.1596 31.2136 50.9621 28.9823 50.9621 25.8936C50.9621 22.8698 53.1321 20.6123 55.9559 20.6123ZM55.9059 17.1836C50.7946 17.1836 47.1309 21.1786 47.1309 25.8398C47.1309 30.5686 50.6834 34.6398 55.9646 34.6398C60.7459 34.6398 64.6621 30.9848 64.6621 25.9423C64.6634 20.1611 60.1071 17.1836 55.9059 17.1836Z" fill="#262628"/>
  <path d="M74.9607 20.6153C77.2607 20.6153 79.6232 22.5791 79.6232 25.9328C79.6232 29.3416 77.2657 31.2203 74.9107 31.2203C72.4094 31.2203 70.0819 29.1891 70.0819 25.9653C70.0832 22.6153 72.4994 20.6153 74.9607 20.6153ZM74.6219 17.1953C69.9307 17.1953 66.2432 21.3041 66.2432 25.9166C66.2432 31.1703 70.5182 34.6528 74.5419 34.6528C77.0294 34.6528 78.3519 33.6653 79.3282 32.5328V34.2528C79.3282 37.2641 77.5007 39.0678 74.7407 39.0678C72.0744 39.0678 70.7369 37.0853 70.2719 35.9603L66.9182 37.3628C68.1082 39.8778 70.5032 42.5016 74.7682 42.5016C79.4319 42.5016 82.9882 39.5628 82.9882 33.4016V17.7191H79.3282V19.1978C78.2032 17.9853 76.6644 17.1953 74.6219 17.1953Z" fill="#262628"/>
  <path d="M99.41 20.5301C101.005 20.5301 102.152 21.3776 102.639 22.3951L94.8237 25.6613C94.4875 23.1326 96.8837 20.5301 99.41 20.5301ZM99.2575 17.1738C94.8312 17.1738 91.1162 20.6938 91.1162 25.8901C91.1162 31.3876 95.2575 34.6476 99.6825 34.6476C103.375 34.6476 105.641 32.6263 106.994 30.8176L103.976 28.8101C103.194 30.0251 101.885 31.2126 99.7 31.2126C97.2462 31.2126 96.1187 29.8688 95.42 28.5676L107.122 23.7113L106.515 22.2876C105.385 19.5013 102.747 17.1751 99.2575 17.1738Z" fill="#262628"/>
  <path d="M85.5371 34.1273H89.3809V8.40234H85.5371V34.1273Z" fill="#262628"/>
</svg>
