<svg width="138" height="50" viewBox="0 0 138 50" fill="none" xmlns="http://www.w3.org/2000/svg">
  <path d="M73.5087 15.3587C73.3162 15.59 73.2099 15.8487 73.2099 16.2987V28.6938H73.1399C73.1399 28.6938 66.3574 16.5988 66.0299 16.0413C65.7974 15.6425 65.5374 15.3712 65.1949 15.165C64.8562 14.975 64.4987 14.8525 63.8187 14.8525H61.5799C61.0599 14.8525 60.7337 15.03 60.5012 15.3025C60.3087 15.5362 60.2012 15.795 60.2012 16.245V33.8138C60.2012 34.2638 60.3087 34.5238 60.5012 34.7563C60.7337 35.03 61.0612 35.2063 61.5799 35.2063H62.8487C63.3662 35.2063 63.6949 35.0288 63.9274 34.7563C64.1174 34.5238 64.2274 34.2638 64.2274 33.8138V21.1188H64.2937C64.2937 21.1188 71.3349 33.595 71.6237 34.06C72.0174 34.7125 72.6874 35.2063 73.6424 35.2063H75.8112C76.3312 35.2063 76.6587 35.0288 76.8912 34.7563C77.0812 34.5238 77.1912 34.2638 77.1912 33.8138V17.965H105.705C105.992 17.965 106.21 17.885 106.374 17.7475C106.552 17.5813 106.635 17.365 106.635 17.0387V15.8362C106.635 15.51 106.552 15.29 106.374 15.1275C106.21 14.9913 105.992 14.9075 105.705 14.9075H74.5874C74.0687 14.9075 73.7412 15.0862 73.5087 15.3587ZM85.9562 20.0538C81.2199 20.0538 78.5587 23.7538 78.5587 27.6575C78.5587 31.8213 81.4124 35.48 85.9824 35.48C88.2649 35.48 90.5037 34.62 91.7862 33.105C92.3449 32.45 92.7949 31.5325 92.7949 30.9763C92.7949 30.7838 92.7537 30.6213 92.6462 30.4975C92.5362 30.3613 92.3724 30.2775 92.0874 30.2775H89.8874C89.4524 30.2775 89.1524 30.4438 88.9324 30.77C88.2924 31.7125 87.3624 32.2025 85.9974 32.2025C83.9512 32.2025 82.6262 30.6463 82.5337 28.9413H92.0337C92.4562 28.9413 92.7537 28.845 92.9587 28.6413C93.1937 28.4225 93.3024 28.1088 93.3024 27.5225C93.3024 25.7325 92.7387 23.8763 91.5662 22.455C90.3687 21.0225 88.5399 20.0538 85.9562 20.0538ZM100.605 20.0538C96.8624 20.0538 94.4087 21.8288 94.4087 24.6675C94.4087 25.6775 94.7749 26.4963 95.3774 27.14C96.0737 27.8925 97.0699 28.41 98.5149 28.7788L101.64 29.5688C102.5 29.7888 103.266 30.0488 103.266 30.7975C103.266 31.96 102.036 32.3538 100.727 32.3538C100.085 32.3538 99.4162 32.2325 98.8699 31.96C98.4887 31.7675 98.1624 31.495 97.9299 31.1275C97.7224 30.8113 97.6562 30.5813 97.3437 30.4025C97.1512 30.295 96.9162 30.2788 96.6037 30.2788H94.9112C94.5449 30.2788 94.3637 30.3888 94.2424 30.5388C94.1199 30.6875 94.0787 30.9075 94.0787 31.1275C94.0787 31.6713 94.2712 32.3538 94.7212 32.97C95.7562 34.3625 97.9287 35.4825 100.7 35.4825C103.43 35.4825 107.209 34.35 107.209 30.6888C107.209 29.7488 106.935 28.9438 106.43 28.2875C105.79 27.455 104.877 26.8813 103.32 26.4863L100.221 25.6925C98.9374 25.365 98.3387 25.135 98.3387 24.3425C98.3387 23.5775 99.0199 22.9638 100.605 22.9638C101.53 22.9638 102.38 23.1675 102.924 23.7438C103.375 24.22 103.292 24.4663 103.649 24.6563C103.864 24.7663 104.11 24.7663 104.494 24.7663H106.036C106.28 24.7663 106.459 24.7263 106.595 24.5738C106.705 24.4525 106.771 24.26 106.771 23.9475C106.771 23.2375 106.31 22.3225 105.49 21.6263C104.399 20.68 102.68 20.0538 100.605 20.0538ZM109.109 20.5725H108.342C108.059 20.5725 107.84 20.6525 107.676 20.7888C107.497 20.955 107.417 21.1713 107.417 21.5013V22.4413C107.417 22.7713 107.497 22.9875 107.676 23.15C107.84 23.2863 108.06 23.37 108.342 23.37H109.109V30.1825C109.109 31.9275 109.585 33.0213 110.474 33.8938C111.291 34.7 112.356 35.2063 114.211 35.2063H115.371C115.661 35.2063 115.876 35.1238 116.04 34.9863C116.221 34.8225 116.327 34.6025 116.327 34.2775V33.0913C116.327 32.7613 116.22 32.545 116.04 32.3825C115.876 32.2463 115.661 32.1625 115.371 32.1625H115.21C114.472 32.1625 113.967 31.9725 113.625 31.6425C113.215 31.2625 113.012 30.6738 113.012 29.91V23.3713H115.497C115.784 23.3713 116 23.2888 116.164 23.1513C116.342 22.9888 116.422 22.7713 116.422 22.4425V21.5025C116.422 21.1725 116.342 20.9563 116.164 20.79C116 20.6538 115.782 20.5738 115.497 20.5738H113.024V16.1238C113.024 15.7675 112.914 15.51 112.752 15.3037C112.545 15.06 112.259 14.9075 111.84 14.9075H110.295C109.87 14.9075 109.585 15.06 109.382 15.3037C109.219 15.51 109.109 15.7675 109.109 16.1238V20.5725ZM117.462 33.9913C117.462 34.3475 117.57 34.6038 117.736 34.81C117.939 35.0563 118.225 35.2063 118.649 35.2063H120.272C120.697 35.2063 120.982 35.0563 121.185 34.81C121.349 34.6038 121.459 34.3475 121.459 33.9913V16.1225C121.459 15.7687 121.349 15.5087 121.185 15.3025C120.982 15.0587 120.696 14.9063 120.272 14.9063H118.649C118.224 14.9063 117.939 15.0587 117.736 15.3025C117.57 15.5087 117.462 15.7687 117.462 16.1225V33.9913ZM82.5612 26.0325C82.7374 24.3525 84.0187 23.0975 85.9724 23.0975C87.8837 23.0975 89.2074 24.3525 89.3849 26.0325H82.5612ZM136.242 17.965C136.53 17.965 136.75 17.885 136.914 17.7475C137.09 17.5813 137.172 17.365 137.172 17.0387V15.7663C137.172 15.2762 137.075 15.03 136.914 14.8537C136.762 14.69 136.516 14.5938 136.242 14.5938C136.027 14.5938 135.807 14.62 135.439 14.66L124.545 15.7387C124.23 15.765 124.081 15.8625 123.971 15.985C123.851 16.1213 123.795 16.2975 123.795 16.545V17.2537C123.795 17.5275 123.851 17.65 123.944 17.76C124.066 17.8963 124.244 17.9637 124.491 17.9637H136.242V17.965ZM130.224 20.0538C125.487 20.0538 122.826 23.7538 122.826 27.6575C122.826 31.8213 125.68 35.48 130.25 35.48C132.53 35.48 134.769 34.62 136.054 33.105C136.612 32.45 137.062 31.5325 137.062 30.9763C137.062 30.7838 137.024 30.6213 136.914 30.4975C136.804 30.3613 136.64 30.2775 136.352 30.2775H134.155C133.717 30.2775 133.417 30.4438 133.197 30.77C132.557 31.7125 131.63 32.2025 130.262 32.2025C128.214 32.2025 126.894 30.6463 126.799 28.9413H136.325C136.75 28.9413 137.05 28.845 137.252 28.6413C137.485 28.4225 137.594 28.1088 137.594 27.5225C137.594 25.7325 137.035 23.8763 135.86 22.455C134.66 21.0225 132.802 20.0538 130.224 20.0538ZM126.826 26.0325C127.002 24.3525 128.286 23.0975 130.237 23.0975C132.149 23.0975 133.472 24.3525 133.652 26.0325H126.826Z" fill="#262628"/>
  <path d="M54.3512 36.9638C54.3512 37.3338 54.2075 37.4375 53.9713 37.4375C53.2113 37.4375 51.4825 36.2887 50.295 35.3862L50.2663 35.405C50.6087 36.3263 51.7675 39.6037 52.1275 40.5725C52.2313 40.8675 52.3075 41.1025 52.3075 41.3975C52.3075 41.6838 52.2125 41.8812 52.0612 42.025C51.9 42.1762 51.72 42.2613 51.3862 42.2613H49.9813C49.4113 42.2613 49.1838 42.3925 48.8512 42.7175C48.385 43.1712 48.2713 43.2763 47.8825 43.6675C47.6438 43.895 47.3888 44 47.1225 44C46.5337 44 46.2775 43.6188 46.1437 42.9375C45.3925 38.9575 44.7 34.5987 44.5287 33.4025C44.5187 33.3237 44.5013 33.22 44.5013 33.1337C44.5013 33.0212 44.5488 32.925 44.6813 32.925C44.8338 32.925 44.88 33.07 44.9475 33.3237C45.2325 34.4837 46.325 38.6625 47.0462 42.0337C47.1025 42.3 47.2275 42.4025 47.3788 42.4025C47.5013 42.4025 47.5875 42.3662 47.7388 42.2125L48.375 41.5675C48.5175 41.4263 48.555 41.3312 48.555 41.16C48.555 40.9725 48.49 40.7138 48.4313 40.4375C48.2988 39.8388 47.9763 38.2637 47.7013 36.8575C47.6525 36.59 47.625 36.5075 47.625 36.4288C47.625 36.3438 47.6913 36.2688 47.7863 36.2688C47.8613 36.2688 47.9288 36.3062 47.9675 36.4187C48.175 37.0475 49.2588 40.1325 49.4388 40.6838C49.4875 40.8175 49.5525 40.93 49.6475 41.0087C49.7425 41.085 49.8488 41.1212 50.1138 41.1212H50.7313C50.9025 41.1212 50.9775 41.095 51.035 41.0363C51.1 40.98 51.1288 40.895 51.1288 40.79C51.1288 40.6488 51.0725 40.495 51.025 40.3525L48.9725 34.4837C46.3425 32.5662 43.1425 29.9262 40.3125 26.8575C37.4725 23.7687 34.8137 20.055 33.8537 15.9163C33.75 15.4587 33.7012 15.2312 33.7012 15.1263C33.7012 15.0325 33.7687 14.965 33.8625 14.965C33.94 14.965 33.9862 14.995 34.0337 15.0987C34.1488 15.3562 34.2512 15.6013 34.375 15.8675C36.18 19.865 38.25 23.0013 40.6338 25.705C43.995 29.5163 48.165 32.6038 52.98 35.87L53.0075 35.8513C51.3263 31.235 48.3162 25.3162 43.7288 18.6037C42.4475 16.7212 41.2312 15.3163 40.1862 14.2338C38.3725 12.3613 37.1937 11.725 36.5775 11.1575C35.675 10.33 34.8962 9.21875 34.4212 8.68625C33.3862 7.5375 32.3412 6.38875 30.5562 6.38875C29.1313 6.38875 28.0387 7.1775 27.5462 8.42C27.3937 8.81125 27.3463 9.095 27.2225 9.3225C27.08 9.5875 26.795 10.035 26.5187 10.52H27.82L27.0512 11.8212C27.355 11.7537 28.0112 11.6125 28.7125 11.6125C29.5875 11.6125 30.5362 11.84 30.9837 12.7125C31.6575 14.0325 31.5337 16.9962 32.3037 19.1062C33.0825 21.27 34.5363 23.2463 36.3213 25.0312C36.3687 25.0775 36.3887 25.1162 36.3887 25.1737C36.3887 25.2487 36.3213 25.3263 36.2175 25.3263C36.18 25.3263 36.15 25.315 36.1225 25.2963C33.9862 23.7113 32.0863 21.6388 31.3075 19.5238C30.4725 17.2725 30.4725 14.2812 29.9788 13.29C29.7125 12.76 29.105 12.56 28.26 12.56C27.31 12.56 26.5975 12.7225 25.6 12.94L26.4562 11.325H24.6987C25.0887 10.6912 26.0287 9.08375 26.2375 8.74375C26.3325 8.59125 26.4375 8.17375 26.57 7.83125C27.0262 6.635 28.4312 5.25 30.5587 5.25C32.7625 5.25 34.1012 6.64625 35.1375 7.77625C35.6025 8.28 36.335 9.32375 37.2938 10.245C38.1675 11.08 41.2725 12.8587 44.8063 18.1275C51.4437 28.025 54.3512 35.215 54.3512 36.9638ZM4.955 13.1237C2.62875 13.1237 1.64125 14.245 1.64125 14.9963C0.9475 15.28 0.5 16.0487 0.5 16.7612C0.5 18.1775 1.53625 19.1837 2.90375 19.1837C3.35875 19.1837 3.82375 19.0037 4.1475 18.755C4.38375 18.84 4.68875 18.8888 5.0025 18.8888C5.65875 18.8888 6.38875 18.6613 6.9025 17.9087C6.97875 17.9187 7.045 17.9188 7.12125 17.9188C7.9575 17.9188 8.67875 17.3675 9.05875 16.6462C9.15375 16.4637 9.19125 16.3225 9.19125 16.2175C9.19125 16.1138 9.14375 16.0275 9.03875 16.0275C8.90625 16.0275 8.88625 16.1537 8.65 16.37C8.1175 16.855 7.3 17.0338 6.465 17.0338C6.05625 17.6325 5.55375 17.9462 4.975 17.9462C4.5475 17.9462 4.21625 17.8313 3.8725 17.6038C3.5975 17.9062 3.255 18.0325 2.9225 18.0325C2.1725 18.0325 1.64125 17.51 1.64125 16.75C1.64125 16.2175 1.9825 15.7437 2.4575 15.5612C2.5425 14.6212 3.55 13.9862 4.8025 13.9862C4.96375 13.9862 5.12625 13.9938 5.2975 14.015C5.4875 13.71 5.94375 13.3862 6.58875 13.3C6.72125 13.2812 6.825 13.2712 6.90125 13.2325C6.9775 13.195 7.015 13.12 7.015 13.035C7.015 12.96 6.98625 12.8925 6.91125 12.845C6.845 12.8075 6.73 12.7888 6.5975 12.76C5.99875 12.645 5.2875 12.275 4.92625 11.3725C3.49125 11.3725 2.4375 10.2238 2.4375 8.93375V8.85C1.9625 8.66 1.64125 8.2025 1.64125 7.66125C1.64125 6.95 2.20125 6.38125 2.91375 6.38125C3.34 6.38125 3.71125 6.59 3.94875 6.9025C4.14875 6.845 4.37625 6.825 4.595 6.825C5.66 6.825 6.79875 7.5 7.0175 8.80875C8.385 8.935 8.70875 10.0912 8.7925 10.5762C8.84 10.825 8.8775 11.0337 9.04 11.0337C9.21125 11.0337 9.24875 10.8413 9.30625 10.5875C9.40875 10.1025 9.59 9.7125 9.95 9.41C9.95 8.165 10.88 7.0925 12.2013 7.0925C12.4012 6.655 12.8375 6.3525 13.36 6.3525C14.0712 6.3525 14.6413 6.90375 14.6413 7.635C14.6413 8.06 14.4425 8.4325 14.1287 8.66C14.195 8.90625 14.2425 9.12375 14.2425 9.3325C14.2425 10.13 13.7688 10.6925 12.895 10.9875C12.78 11.47 12.5713 11.9087 12.2288 12.23C11.6588 12.7812 11.08 12.7812 11.08 13.0087C11.08 13.1325 11.1663 13.21 11.4038 13.21C12.4575 13.21 13.4925 12.6212 13.6175 11.6412C14.6238 11.3012 15.2325 10.2838 15.2325 9.4775C15.2325 9.26625 15.2125 9.08625 15.1275 8.9175C15.4038 8.65 15.7263 8.195 15.7263 7.52C15.7263 6.93125 15.4675 6.33375 15.0138 5.8975C14.6138 5.50625 14.0525 5.25 13.3975 5.25C12.4475 5.25 11.8313 5.7625 11.48 6.26625C10.4438 6.26625 9.105 7.415 9.105 9.05875H8.9625C8.86625 8.48875 8.27875 8.10875 7.785 8.07875C7.38625 6.88375 6.48375 5.8575 5.0025 5.8575C4.83125 5.8575 4.6225 5.86625 4.4425 5.89625C4.00625 5.49625 3.52125 5.25 2.84625 5.25C1.55375 5.25 0.5 6.285 0.5 7.59375C0.5 8.4125 0.87 8.9725 1.57375 9.465C1.57375 9.465 1.565 9.56875 1.565 9.6175C1.565 10.6613 2.705 12.295 4.395 12.295C4.395 12.56 4.7275 12.9212 5.09875 12.9887V13.1225H4.955V13.1237ZM13.18 16.685C11.8413 18.27 11.1375 19.555 9.97 22.4013C10.16 22.3825 10.4363 22.3638 10.74 22.3638C10.8925 22.3638 11.015 22.3637 11.215 22.3737L11.3563 22.0688C12.0125 20.6625 12.8938 18.765 14.13 17.3L14.5575 16.7987C15.83 15.3075 16.6175 14.4238 17.1112 12.3913C17.2825 11.6688 17.425 11.0238 17.91 10.5575C18.3463 10.14 18.8975 9.96 19.4575 9.96C19.9325 9.96 20.285 10.0725 20.7975 10.2925C21.2625 10.4913 21.4325 10.5275 21.9275 10.5275C22.0988 10.5275 22.2212 10.52 22.335 10.5087L21.6712 11.4038L22.5737 12.0375C21.4437 12.37 20.8462 13.465 20.6462 13.9675C20.6075 14.0712 20.59 14.1388 20.59 14.2063C20.59 14.2812 20.6275 14.3562 20.7425 14.3562C20.865 14.3562 20.96 14.2625 21.1213 14.0725C21.6725 13.4062 22.11 12.9513 24.1413 12.3138L22.7087 11.2325L23.7912 9.6475H22.775C22.1287 9.6475 21.7025 9.63625 21.1412 9.38C20.3812 9.02875 19.9925 8.88 19.3175 8.88C18.4912 8.88 17.7413 9.17125 17.1238 9.74125C16.4113 10.3975 16.1925 11.27 15.9375 12.2312C15.7375 12.97 15.5 13.7875 14.9688 14.5363C14.5175 15.175 14.1962 15.4875 13.18 16.685ZM24.5 14.9175C24.035 15.0138 23.6925 15.1 23.2837 15.1C23.0175 15.1 22.7137 15.0625 22.3538 14.9738C22.0775 14.91 21.7825 14.8537 21.365 14.8537C20.615 14.8537 19.8062 15.1375 19.2563 15.6675C18.25 16.6287 18.1925 17.6625 18.1262 18.5862C18.0413 19.81 17.8137 20.1125 17.1475 21.0062C16.6062 21.7375 15.865 22.6962 15.2962 23.7137C15.4775 23.7987 16.0763 24.1212 16.285 24.2362C16.9388 23.2475 17.8513 22.0325 18.45 21.1112C18.9913 20.2762 19.2087 19.9137 19.2475 18.7925C19.2563 18.6025 19.2563 18.4238 19.275 18.2438C19.3225 17.6625 19.475 17.0738 20.025 16.5325C20.4338 16.125 21.0225 15.9163 21.6125 15.9163C22.1825 15.9163 22.5137 16.0763 23.0075 16.0763C23.3587 16.0763 23.615 15.9913 23.8425 15.905L24.0238 15.8387L23.5863 16.885L24.6112 17.3025C23.9575 17.71 22.5225 19.4663 22.5225 21.5475C22.5225 22.3 22.6362 22.99 22.7987 23.6087C22.8187 23.6725 22.8562 23.74 22.96 23.74C23.055 23.74 23.1213 23.6838 23.1312 23.5788L23.1412 23.36C23.1687 22.725 23.2175 21.7187 23.4737 20.8162C23.9012 19.2987 25.05 17.8712 26.2 17.1887L24.5662 16.4762L25.27 14.7575L24.5 14.9175ZM48.2713 29.4312L48.7363 29.755C48.8037 29.8025 48.8513 29.83 48.9075 29.83C49.0025 29.83 49.0687 29.7375 49.0687 29.6588C49.0687 29.6112 49.05 29.5625 48.9925 29.5175C47.6063 28.2525 46.115 26.7162 44.72 25.2325C43.6263 24.0637 42.5063 22.83 41.5188 21.585C41.4525 21.5 41.395 21.4613 41.32 21.4613C41.2063 21.4613 41.1488 21.5363 41.1488 21.6213C41.1488 21.755 41.2438 21.9162 41.4813 22.3175C42.2038 23.5412 43.0962 24.7763 44.1975 25.935C45.385 27.1975 46.78 28.375 48.2713 29.4312ZM8.81125 13.255C9.315 13.9888 10.16 15.4025 10.9575 17.285C11.1 17.0463 11.5275 16.4675 11.6988 16.2863C10.9675 14.805 9.77125 13.3888 9.24875 12.8287L8.81125 13.255ZM6 9.44C5.4675 9.02875 4.86875 8.6975 4.1675 8.41375C4.11875 8.3925 4.08125 8.38375 4.04375 8.38375C3.94 8.38375 3.89125 8.45875 3.89125 8.52625C3.89125 8.5825 3.91 8.63 3.995 8.705C4.8225 9.41 6.4175 10.7488 6.91125 11.1588L7.30875 10.7C6.88375 10.1975 6.445 9.78 6 9.44ZM12.8475 8.53625C12.8475 8.45875 12.78 8.38375 12.685 8.38375C12.6 8.38375 12.5525 8.44 12.4675 8.5075C12.1063 8.82 11.7838 9.13375 11.4412 9.5225C10.9575 10.0663 10.5475 10.7862 10.2162 11.5763L10.73 11.89C11.08 11.3675 12.2113 9.58125 12.79 8.68C12.8275 8.62 12.8475 8.57375 12.8475 8.53625ZM3.89125 16.2188C3.89125 16.2862 3.94 16.3725 4.04375 16.3725C4.11 16.3725 4.1675 16.3425 4.29125 16.2975L7.76625 15.1188L7.59625 14.5487C6.18125 14.7863 5.155 15.1463 3.9875 16.0588C3.91875 16.1138 3.89125 16.155 3.89125 16.2188ZM29.4387 7.99375C28.8212 7.99375 28.65 8.5925 28.65 8.925C28.65 9.19 28.7463 9.50625 29.0775 9.50625C29.3538 9.50625 29.695 9.305 29.96 9.08875C30.2162 8.8775 30.3875 8.705 30.3875 8.535C30.3875 8.37375 30.235 8.22375 30.0075 8.1175C29.8475 8.04125 29.6475 7.99375 29.4387 7.99375ZM20.045 12.0013C20.3013 11.8488 20.52 11.6313 20.52 11.4038C20.52 11.2988 20.4725 11.195 20.3675 11.1012C20.1863 10.9275 19.94 10.8412 19.7313 10.8412C19.2563 10.8412 19.01 11.2888 19.01 11.6988C19.01 12.01 19.1625 12.1913 19.4562 12.1913C19.6375 12.1913 19.8463 12.1175 20.045 12.0013ZM22.6675 17.255C22.6675 17.1313 22.6112 17.0087 22.4662 16.9125C22.305 16.7975 22.1062 16.7513 21.9262 16.7513C21.5262 16.7513 21.3662 16.99 21.29 17.2362C21.2525 17.3488 21.2425 17.4637 21.2425 17.5575C21.2425 17.9 21.395 18.1388 21.6413 18.1388C21.9837 18.1388 22.6675 17.6625 22.6675 17.255ZM20.6912 25.395L20.1413 24.6812C18.0138 25.5 15.6488 26.8213 15.6488 28.17C15.6488 28.9388 16.22 29.545 17.5 29.545C19.38 29.545 21.385 28.5962 22.99 27.7125L22.7612 27.4C22.63 27.21 22.515 27.1538 22.335 27.1538C22.2212 27.1538 22.0975 27.1987 21.9937 27.2475C20.6175 27.9212 19.125 28.5963 17.7388 28.5963C16.9412 28.5963 16.7425 28.35 16.7425 28.0075C16.7413 27.04 19.3813 25.915 20.6912 25.395ZM9.53375 28.92L9.6 29.3263C9.6275 29.4975 9.695 29.64 9.83625 29.7075C10.0075 29.7925 10.2537 29.8 10.6825 29.8C11.765 29.8 12.5538 29.67 13.0087 29.5538C14.1775 31.295 15.7825 31.9588 17.3312 31.9588C18.65 31.9588 19.99 31.4738 21.2725 30.77L21.035 29.9062C19.7825 30.61 18.4813 31.0762 17.3325 31.0762C16.0488 31.0762 14.91 30.5263 13.96 29.09C13.5625 28.4825 13.2487 27.7237 12.8675 27.0487C12.4125 26.2512 11.9175 25.8225 11.0538 25.8225C10.2662 25.8225 9.49625 26.1475 8.68 26.4975L8.7175 26.68C8.785 26.9712 8.9 27.18 9.17375 27.18C9.2975 27.18 9.42125 27.1238 9.48875 27.1038C9.94375 26.9625 10.2762 26.8387 10.7413 26.8387C11.4537 26.8387 11.795 27.2563 12.2788 28.2825L12.46 28.6625C11.9662 28.8337 10.8075 28.92 9.94375 28.92H9.53375ZM29.4775 29.755C28.67 29.755 28.7462 28.375 28.6887 27.2825C25.84 27.5588 24.0537 28.4037 22.0987 29.4575L22.3262 30.3325C24.1012 29.2687 25.8125 28.6612 27.6263 28.48C27.645 29.5238 28.0912 30.9213 29.2775 30.9213C30.5512 30.9213 32.0987 28.9262 33.9125 26.5887L34.3875 25.9725C34.14 25.7825 33.8662 25.6112 33.6937 25.45C31.8325 27.8463 30.2175 29.755 29.4775 29.755ZM45.3375 10.2637H45.4888C45.4888 10.33 45.48 10.405 45.48 10.4725C45.48 11.5463 46.03 12.3438 47.3888 12.3438C48.225 12.3438 49.5363 11.9262 50.7713 11.5087C51.7963 11.1575 52.7363 10.7962 53.2013 10.6625V9.525C52.67 9.685 51.5863 10.1025 50.4662 10.4913C49.2887 10.9012 48.13 11.27 47.4563 11.27C46.715 11.27 46.5062 10.86 46.5062 10.2812C46.5062 9.08375 47.2562 7.36625 47.7313 6.38875H46.5813C45.9825 7.5475 43.6275 11.2587 42.355 12.7987L43.0863 13.5862C43.77 12.8287 44.52 11.5362 45.3375 10.2637ZM49.99 14.72C51.13 14.235 53.1713 13.4188 54.35 12.99V11.83C51.985 12.7062 47.835 14.425 45.0037 15.965C45.08 16.0587 45.5737 16.7513 45.63 16.8375C46.8275 16.3425 47.9 16.0212 48.8688 16.0212C50.2275 16.0212 51.3388 16.0213 53.2013 15.5813V14.7088C52.1563 14.8988 51.045 15.1263 50.3238 15.1263C49.8963 15.1263 49.7725 15.07 49.7725 14.9275C49.7725 14.8425 49.8288 14.7863 49.99 14.72ZM25.6587 20.0562L25.2025 20.9325H30.0562L29.695 20.0562H25.6587ZM9.51375 31.8063C10.15 31.8063 10.8812 32.0825 11.7937 32.6225C12.5625 33.0775 13.37 33.6963 14.0075 34.4062L14.815 33.7913C14.1213 32.975 13.1625 32.2437 12.2037 31.6737C11.2437 31.1063 10.39 30.77 9.66875 30.77C9.35625 30.77 9.09875 30.83 8.88 30.8863C8.62375 30.9538 8.385 31.0275 8.08125 31.0275C7.73125 31.0275 7.435 30.9425 7.0075 30.4487C6.84625 30.2663 5.82125 29.1 5.6025 28.7563C5.49875 28.595 5.30875 28.2712 5.30875 27.895C5.30875 27.7312 5.33625 27.5412 5.4325 27.37C6.315 28.055 7.4075 28.4725 8.73625 28.6338L8.55625 27.7313C6.6475 27.2275 4.615 25.545 4.615 24.4638C4.615 24.2362 4.6725 24.075 4.7575 23.875C5.4975 24.5575 7.235 25.27 8.17625 25.27C8.68875 25.27 9.1075 25.0988 9.50625 24.9412C9.885 24.785 10.265 24.635 10.7788 24.635C11.995 24.635 13.495 25.225 14.815 25.7838C14.8913 25.8137 14.9763 25.8325 15.0613 25.8325C15.2712 25.8325 15.4325 25.7363 15.5363 25.5388L15.7075 25.225C14.255 24.3787 11.9375 23.4762 10.7313 23.4762C10.1813 23.4762 9.78125 23.6187 9.4025 23.7712C8.975 23.9425 8.605 24.1225 8.215 24.1225C7.25625 24.1225 4.7975 23.175 4.7975 22.2525C4.7975 21.1687 8.71 20.75 9.1375 20.75L9.52625 19.8663C6.6875 19.8663 3.30625 20.865 3.30625 22.185C3.30625 22.565 3.525 22.7525 3.525 23.1063C3.525 23.58 3.30625 23.9037 3.30625 24.435C3.30625 24.785 3.515 25.2337 3.76125 25.6237C4.0275 26.0312 4.34125 26.2962 4.34125 26.64C4.34125 26.8962 4.17125 27.1988 4.17125 27.8C4.17125 29.0813 4.9025 29.8612 6.32625 31.39L6.61125 31.6925C5.435 32.15 3.23875 33.0988 2.72625 33.3175C0.95125 34.0575 0.505 34.9587 0.505 36.3862C0.505 36.935 0.505 37.5612 0.5425 38.1225H0.88375C1.5975 38.1225 1.68125 37.6963 1.68125 37.2887C1.68125 37.0125 1.6725 36.6975 1.6725 36.3575C1.68125 35.57 1.71125 34.8662 2.9825 34.2962C3.49625 34.0687 6.0125 33.0425 7.88375 32.245C8.43 32.005 8.94375 31.8063 9.51375 31.8063ZM32.2775 24.0912C31.7075 24.34 30.3975 24.8137 29.0962 24.8137C28.45 24.8137 27.91 24.7575 27.3112 24.6812C26.57 24.5875 25.8687 24.5012 25.2687 24.5012C24.2712 24.5012 23.0375 24.5975 21.8412 25.4412L22.3625 26.1275C23.1787 25.7362 24.4987 25.545 25.155 25.545C25.7537 25.545 26.37 25.6125 26.94 25.6875C27.5862 25.775 28.3375 25.87 29.125 25.87C30.9112 25.87 32.6575 24.9188 32.9325 24.7488C32.715 24.56 32.44 24.2925 32.2775 24.0912ZM33.665 35.2812C32.61 35.88 31.66 36.27 29.61 36.27H25.1737C23.5887 36.27 22.5912 36.4788 21.8137 36.6763C20.9775 36.8963 20.4463 37.1137 19.6 37.1137C18.3463 37.1137 17.1875 36.4975 16.6275 35.9088L17.6713 35.0838L17.15 34.3875C16.8463 34.6075 13.1325 37.3512 12.3525 37.97L12.305 37.9412C12.325 37.7513 12.325 37.5788 12.325 37.4075C12.325 35.3188 11.3562 34.8162 9.88375 34.2262L8.8875 34.8162C10.91 35.4912 11.4137 36.0325 11.4137 37.5425C11.4137 38.7388 10.9862 39.2125 10.3687 39.575C9.7325 39.9475 8.94375 40.1163 8.25125 40.1163C7.95625 40.1163 7.82375 40.175 7.71875 40.28C7.605 40.3912 7.5475 40.5625 7.5475 40.7987V41.1313H7.785C9.0575 41.1313 10.235 40.9338 11.5262 39.9163L15.7338 36.6312C16.3313 37.3138 17.8425 38.265 19.6275 38.265C20.6338 38.265 21.28 38.0163 22.21 37.78C22.9312 37.5975 23.635 37.4375 25.1725 37.4375H29.6262C31.9062 37.4375 33.0088 36.9638 34.2238 36.2812C36.8638 34.7963 39.115 32.2913 40.3888 29.4125C40.0563 29.2038 39.7412 29.0138 39.4762 28.8338C38.0525 31.835 35.8862 34.0175 33.665 35.2812ZM37.0163 27.5987C36.7512 27.435 36.3713 27.19 36.1712 27.055C35.1937 27.4837 34.225 28.3375 33.3988 29.2025C31.4988 31.1788 31.6688 32.3162 29.6663 33.0875C29.1625 33.2775 28.545 33.4862 27.7562 33.6663C27.2912 32.2312 26.1237 30.8062 24.8888 30.8062C24.0337 30.8062 23.0462 31.2525 21.9062 31.7575C20.5675 32.3462 19.3425 33.0212 18.9538 33.2788L19.4763 33.98C19.8738 33.76 21.0237 33.19 22.1725 32.6987C23.17 32.27 24.0725 31.9187 24.68 31.9187C25.6575 31.9187 26.295 33.0337 26.6462 33.9237C25.3638 34.2262 23.255 34.305 22.6187 34.305C22.3237 34.305 22.2188 34.35 22.115 34.435C22.0212 34.52 21.945 34.6725 21.8975 34.8825L21.8212 35.2062H22.5037C26.0562 35.2062 29.4088 34.6438 31.5637 33.335C31.8687 33.42 32.135 33.4762 32.4762 33.4762C33.7113 33.4762 34.9825 32.8013 35.7812 32.1862C36.0662 31.9662 36.1325 31.765 36.1325 31.5487C36.1325 31.4438 36.1225 31.35 36.1125 31.2537L36.075 30.885C34.9362 31.7875 33.9863 32.4625 32.8088 32.4625C32.6 32.4625 32.4475 32.44 32.3237 32.4025C33.475 30.5613 34.5 28.9275 37.0163 27.5987Z" fill="#262628"/>
</svg>
