<svg width="183" height="50" viewBox="0 0 183 50" fill="none" xmlns="http://www.w3.org/2000/svg">
  <path d="M13.9864 16.4796C13.9864 14.4964 12.1017 14 10.615 14V14.2981C11.508 14.2981 12.2015 14.5937 12.2015 15.2897C12.2015 15.6851 11.9047 16.2813 11.0116 16.2813C10.3169 16.2813 8.83015 15.8846 7.73878 15.4867C6.4491 14.9903 5.2592 14.5937 4.26763 14.5937C2.28447 14.5937 0.896259 16.0817 0.896259 17.7693C0.896259 19.2573 1.98762 19.7524 2.38426 19.9507L2.48405 19.7537C2.28573 19.5541 1.98763 19.3571 1.98763 18.7621C1.98763 18.3655 2.38426 17.6707 3.37583 17.6707C4.26889 17.6707 5.45879 18.0661 7.04531 18.5625C8.43478 18.9592 9.92152 19.2585 10.7148 19.3571V22.4316L9.22678 23.7213V23.8211L10.7148 25.1095V29.3752C9.92152 29.8716 9.02847 29.9701 8.2352 29.9701C6.7472 29.9701 5.45879 29.5735 4.36742 28.3836L8.43352 26.4004V19.5566L3.47436 21.7406C3.871 20.4509 4.96237 19.5566 6.05247 18.9629L5.95394 18.6661C2.9792 19.4594 0.300049 22.2358 0.300049 25.6072C0.300049 29.5747 3.57289 32.5495 7.24236 32.5495C11.2087 32.5495 13.788 29.3764 13.788 26.1023H13.5897C12.9948 27.392 12.1017 28.5819 11.0116 29.1781V25.1107L12.5982 23.8223V23.7225L11.0116 22.4328V19.3558C12.4996 19.3558 13.9864 18.3642 13.9864 16.4796ZM5.359 27.3895L4.1691 27.9844C3.47563 27.0914 3.07773 25.9027 3.07773 24.2164C3.07773 23.5217 3.07773 22.7284 3.27605 22.1347L5.359 21.2429V27.3895ZM15.871 29.6695L14.5813 30.6623L14.7796 30.8594L15.3746 30.3629L17.556 32.3461L20.5308 30.3629L20.431 30.1659L19.6377 30.6623L18.6461 29.6695V22.9255L19.4394 22.3305L21.1257 23.7187V29.768C21.1257 33.536 20.3325 34.1309 18.6461 34.7284V35.024C21.4226 35.1225 24.0019 34.232 24.0019 29.3714V22.8257L24.895 22.1309L24.6967 21.9326L23.9034 22.5276L21.4238 20.4459L18.6474 22.5276V14.3954H18.4491L14.9779 16.7764V16.9735C15.3746 17.1718 15.9695 17.3701 15.9695 18.4615L15.871 29.6695ZM34.02 28.5781L31.5417 30.4627L29.0622 28.4796V27.2897L33.7232 24.1154V24.0168L31.3434 20.4472L26.1859 23.2236V29.7693L25.1944 30.5625L25.3927 30.7621L26.2857 30.0661L29.6571 32.5457L34.1198 28.976L34.02 28.5781ZM29.0622 26.8931V22.0324L29.2605 21.9339L31.4419 25.4051L29.0622 26.8931ZM52.9624 15.5865C52.9624 15.2909 52.8638 14.9916 52.764 14.6947H52.5657C52.2689 15.488 51.8723 15.8846 50.8807 15.8846C49.9876 15.8846 49.3927 15.3882 48.996 14.9916L46.1198 18.2657L46.3181 18.4627L47.3097 17.5697C47.9047 18.0661 48.4011 18.4627 49.7893 18.5613V26.7933L43.9384 16.7777C43.4419 15.9832 42.7485 14.8931 41.359 14.8931C39.7725 14.8931 38.3843 16.2825 38.5826 18.4627H38.8794C38.9792 17.8678 39.276 17.1731 39.9708 17.1731C40.4672 17.1731 40.9624 17.6695 41.2605 18.1646V21.4375C39.4756 21.4375 38.2857 22.2307 38.2857 23.7187C38.2857 24.512 38.6824 25.7019 39.8723 26V25.8017C39.6739 25.6034 39.5754 25.4063 39.5754 25.1069C39.5754 24.6105 39.972 24.2152 40.6668 24.2152H41.1632V28.3811C39.0803 28.3811 37.3939 29.5697 37.3939 31.5541C37.3939 33.4387 38.9805 34.3318 40.7653 34.2333V34.0337C39.6752 33.9352 39.1788 33.4387 39.1788 32.7453C39.1788 31.8522 39.7737 31.4556 40.567 31.4556C41.3603 31.4556 42.055 31.952 42.5502 32.5457L45.4264 29.3726L45.228 29.1743L44.5346 29.9676C43.4432 28.976 42.8483 28.6779 41.5598 28.4796V18.5613L49.4937 32.4459H50.0887V18.5613C51.5741 18.4627 52.9624 17.2741 52.9624 15.5865ZM60.2015 28.5781L57.7219 30.4627L55.2424 28.4796V27.2897L59.9034 24.1154V24.0168L57.5236 20.4472L52.3661 23.2236V29.7693L51.3746 30.5625L51.5729 30.7621L52.4659 30.0661L55.8373 32.5457L60.3 28.976L60.2015 28.5781ZM55.2436 26.8931V22.0324L55.4419 21.9339L57.6234 25.4051L55.2436 26.8931ZM76.3674 21.5373L75.6727 22.0337L73.7893 20.4472L71.6066 22.4303L72.4996 23.3234V30.7621L70.1186 29.2728V23.1238L70.9131 22.6286L68.6306 20.4459L66.4491 22.4291L67.3421 23.3221V30.4615L67.0453 30.6611L64.9624 29.1718V23.2211C64.9624 21.8328 64.2676 21.4362 63.4744 20.9398C62.7796 20.4434 62.383 20.1465 62.383 19.4518C62.383 18.8568 62.9779 18.5587 63.276 18.3617V18.1634C62.4828 18.1634 60.3998 18.9566 60.3998 20.8413C60.3998 21.8328 60.8963 22.2295 61.3914 22.7246C61.8866 23.2198 62.383 23.6164 62.383 24.5095V30.2632L61.2916 31.0552L61.4899 31.2547L62.4815 30.4602L64.7628 32.4434L67.2411 30.7583L70.0188 32.4434L75.2735 29.3688V22.7234L76.5632 21.7331L76.3674 21.5373ZM94.8146 16.0817L93.823 16.9747L91.6403 14.9916L88.3674 17.3726V15.1899H88.0706L88.1691 31.2573C87.8723 31.2573 86.9805 31.0577 86.2857 30.8606L86.0874 17.4712C86.0874 16.4796 85.3927 15.0901 83.6078 15.0901C81.823 15.0901 80.6331 16.4796 80.6331 17.8678H80.9299C81.0297 17.2728 81.3266 16.7777 81.9215 16.7777C82.5177 16.7777 83.0129 17.1731 83.0129 18.4627V22.3318C81.2268 22.4303 80.1367 23.4219 80.1367 24.7116C80.1367 25.5048 80.5333 26.6947 81.7232 26.6947V26.4964C81.3278 26.2981 81.2268 26 81.2268 25.8017C81.2268 25.2067 81.7232 25.0084 82.5165 25.0084H82.9118V31.1587C81.4238 31.6552 80.8301 32.7453 80.8301 33.9339C80.8301 35.6189 82.1198 36.8101 84.103 36.8101C85.4925 36.8101 86.6811 36.6105 87.871 36.3137C88.8626 36.1141 90.1523 35.8173 90.7472 35.8173C91.5405 35.8173 91.8373 36.2126 91.8373 36.7078C91.8373 37.4038 91.5405 37.6994 91.1426 37.8004V38C92.7303 37.7019 93.7219 36.7103 93.7219 35.2248C93.7219 33.7368 92.2339 32.8438 90.6461 32.8438C89.8529 32.8438 88.1666 33.1394 86.9779 33.3402C85.5885 33.6358 84.2002 33.8366 83.8036 33.8366C83.1089 33.8366 82.3156 33.5385 82.3156 32.5469C82.3156 31.7549 83.0104 31.0589 84.6954 31.0589C85.5885 31.0589 86.6786 31.16 87.7712 31.4556C88.9611 31.7537 90.0525 32.0505 91.044 32.0505C92.532 32.0505 93.8205 31.5541 93.8205 29.4724V17.2754L95.0104 16.2838L94.8146 16.0817ZM90.7485 22.1322C90.4516 22.4291 90.0537 22.7272 89.5586 22.7272C89.0634 22.7272 88.567 22.4303 88.3687 22.1322V17.7693L89.3602 17.0733L90.7497 18.3629V22.1322H90.7485ZM90.7485 25.1069C90.5501 24.9099 90.0537 24.6105 89.5586 24.6105C89.0634 24.6105 88.567 24.9086 88.3687 25.1069V22.5288C88.567 22.7272 89.0634 23.0253 89.5586 23.0253C90.0537 23.0253 90.5501 22.7284 90.7485 22.5288V25.1069ZM90.7485 29.768C90.7485 30.5613 90.252 31.3558 89.1607 31.3558H88.3674V25.5036C88.5657 25.3065 89.0621 25.0072 89.5573 25.0072C90.0525 25.0072 90.4504 25.3053 90.7472 25.5036V29.768H90.7485ZM104.336 22.7272L101.161 20.4459L96.3013 23.2223V29.6695L95.3097 30.4627L95.4095 30.6623L96.2015 30.0648L99.3771 32.4459L104.336 29.4712V22.7272ZM98.9804 28.9747V21.8354L101.46 23.6189V30.6623L98.9804 28.9747ZM113.757 20.6455H113.559C113.263 20.8438 112.964 21.0408 112.666 21.0408C112.27 21.0408 111.775 20.8438 111.575 20.5444H111.378L109.691 22.4291L108.006 20.5444L105.031 22.5276L105.13 22.7259L105.924 22.2295L106.916 23.3208V29.5672L105.626 30.5587L105.826 30.7583L106.42 30.2619L108.802 32.2451L111.876 30.1634L111.778 29.9638L110.884 30.4602L109.693 29.4686V22.5263C110.19 23.0227 110.786 23.5179 111.479 23.5179C112.865 23.6189 113.657 22.232 113.757 20.6455ZM125.658 30.1672L122.286 32.4472L117.724 25.5048L120.997 20.4472H121.196C121.591 20.8438 122.187 21.2417 122.881 21.2417C123.575 21.2417 124.071 20.8451 124.369 20.4472H124.567C124.468 22.4303 123.079 23.6202 122.087 23.6202C121.096 23.6202 120.599 23.1238 120.006 22.8282L119.709 23.3246L124.668 30.6648L125.66 30.0674V30.1672H125.658ZM114.748 29.6695L113.459 30.6623L113.656 30.8594L114.252 30.3629L116.435 32.3461L119.408 30.3629L119.211 30.1659L118.417 30.6623L117.426 29.6695V14.3966H117.327L113.757 16.7777V16.9747C114.152 17.1731 114.748 17.2728 114.748 18.4627V29.6695ZM142.121 16.4796C142.121 14.4964 140.236 14 138.748 14V14.2981C139.641 14.2981 140.336 14.5937 140.336 15.2897C140.336 15.6851 140.039 16.2813 139.146 16.2813C138.452 16.2813 136.964 15.8846 135.874 15.4867C134.584 15.0901 133.394 14.6935 132.402 14.6935C130.419 14.6935 129.03 16.1815 129.03 17.8678C129.03 19.3558 130.121 19.8509 130.518 20.0493L130.618 19.8522C130.319 19.6539 130.021 19.4556 130.021 18.8606C130.021 18.464 130.418 17.7705 131.411 17.7705C132.303 17.7705 133.492 18.1659 135.08 18.6623C136.468 19.0577 137.955 19.3571 138.748 19.4556V22.5301L137.26 23.8198V23.9183L138.748 25.208V29.4724C137.955 29.9688 137.063 30.0674 136.269 30.0674C134.781 30.0674 133.492 29.672 132.401 28.4808L136.467 26.4977V19.5554L131.508 21.7394C132.004 20.4497 133.096 19.5554 134.087 18.8632L133.988 18.6648C131.013 19.4581 128.334 22.136 128.334 25.5074C128.334 29.4749 131.608 32.4497 135.276 32.4497C139.244 32.4497 141.823 29.2754 141.823 26.0025H141.625C141.03 27.2922 140.137 28.4821 139.047 29.0771V25.0109L140.633 23.7213V23.6215L139.145 22.3331V19.3558C140.633 19.3558 142.121 18.3642 142.121 16.4796ZM133.492 27.3895L132.303 27.9844C131.609 27.0914 131.212 25.9027 131.212 24.2164C131.212 23.5217 131.311 22.7284 131.509 22.1347L133.592 21.2429L133.492 27.3895ZM145.592 15.488H145.492L143.511 17.1743V17.2741L145.196 19.1575H145.394L147.377 17.4712V17.3726L145.592 15.488ZM148.567 30.1672L147.772 30.6636L146.782 29.6707V22.8282L147.772 22.1335L147.575 21.9352L146.881 22.5301L145.096 20.4484L142.22 22.4316L142.418 22.7284L143.113 22.232L144.006 23.3234V29.7693L142.716 30.7621L142.816 30.9592L143.511 30.4627L145.692 32.4459L148.667 30.4627L148.567 30.1672ZM165.13 30.0661L164.435 30.5625L163.345 29.5709V22.8282L164.336 22.0337L164.138 21.8366L163.345 22.5301L161.062 20.4484L158.087 22.5301L155.806 20.4484L153.03 22.5301L151.245 20.4484L148.37 22.4316L148.468 22.7284L149.163 22.232L150.155 23.3234V29.7693L149.362 30.5625L151.643 32.4472L153.824 30.464L152.932 29.5709V22.8282L153.824 22.232L155.312 23.6202V29.5709L154.519 30.3655L156.8 32.2501L158.983 30.2669L158.09 29.3739V22.8282L158.884 22.3318L160.471 23.72V29.6707L159.776 30.3655L162.057 32.4472L165.133 30.3655V30.0661H165.13ZM173.758 28.5781L171.279 30.4627L168.799 28.4796V27.2897L173.459 24.1154V24.0168L171.079 20.4472L165.922 23.2236V29.9676L169.393 32.4472L173.855 28.8775L173.758 28.5781ZM168.799 26.8931V22.0324L168.996 21.9339L171.179 25.4051L168.799 26.8931ZM182.782 26L180.898 24.512C182.187 23.4219 182.684 21.9339 182.684 20.9423V20.3474H182.485C182.287 20.8438 181.889 21.3389 181.096 21.3389C180.303 21.3389 179.806 20.9423 179.311 20.3474L174.848 22.8269V26.3966L176.535 27.6863C174.848 29.1743 174.551 30.1672 174.551 30.9592C174.551 31.9507 175.048 32.6442 175.841 32.9423L175.94 32.7453C175.743 32.5457 175.544 32.4472 175.544 31.9507C175.544 31.6552 175.94 31.1587 176.734 31.1587C177.726 31.1587 178.321 31.8522 178.617 32.1503L182.882 29.5697V26H182.782ZM181.692 23.0253C180.997 24.2152 179.509 25.4063 178.616 26L177.526 25.1069V21.6371C177.921 22.6286 179.014 23.4219 180.104 23.4219C180.799 23.4219 181.197 23.3234 181.692 23.0253ZM180.006 30.9592C179.509 29.8691 178.319 29.0745 177.13 29.0745C176.833 29.0745 176.039 29.0745 175.246 29.5709C175.743 28.7777 177.031 27.3895 178.717 26.3979L179.906 27.3895L180.006 30.9592Z" fill="#262628"/>
</svg>
